<svg width="32" height="32" viewBox="0 0 32 32" fill="none" xmlns="http://www.w3.org/2000/svg">
<g id="vuesax/outline/call-calling">
<g id="call-calling">
<path id="Vector" d="M23.267 30.3333C21.7603 30.3333 20.1737 29.9733 18.5337 29.28C16.9337 28.6 15.3203 27.6666 13.747 26.5333C12.187 25.3866 10.6803 24.1066 9.25366 22.7066C7.84033 21.28 6.56033 19.7733 5.42699 18.2266C4.28033 16.6266 3.36033 15.0266 2.70699 13.48C2.01366 11.8266 1.66699 10.2266 1.66699 8.71996C1.66699 7.67996 1.85366 6.69329 2.21366 5.77329C2.58699 4.82663 3.18699 3.94663 4.00033 3.18663C5.02699 2.17329 6.20033 1.66663 7.45366 1.66663C7.97366 1.66663 8.50699 1.78663 8.96033 1.99996C9.48033 2.23996 9.92033 2.59996 10.2403 3.07996L13.3337 7.43996C13.6137 7.82663 13.827 8.19996 13.9737 8.57329C14.147 8.97329 14.2403 9.37329 14.2403 9.75996C14.2403 10.2666 14.0937 10.76 13.8137 11.2266C13.6137 11.5866 13.307 11.9733 12.9203 12.36L12.0137 13.3066C12.027 13.3466 12.0403 13.3733 12.0537 13.4C12.2137 13.68 12.5337 14.16 13.147 14.88C13.8003 15.6266 14.4137 16.3066 15.027 16.9333C15.8137 17.7066 16.467 18.32 17.0803 18.8266C17.8403 19.4666 18.3337 19.7866 18.627 19.9333L18.6003 20L19.5737 19.04C19.987 18.6266 20.387 18.32 20.7737 18.12C21.507 17.6666 22.4403 17.5866 23.3737 17.9733C23.7203 18.12 24.0937 18.32 24.4937 18.6L28.9203 21.7466C29.4137 22.08 29.7737 22.5066 29.987 23.0133C30.187 23.52 30.2803 23.9866 30.2803 24.4533C30.2803 25.0933 30.1337 25.7333 29.8537 26.3333C29.5737 26.9333 29.227 27.4533 28.787 27.9333C28.027 28.7733 27.2003 29.3733 26.2403 29.76C25.3203 30.1333 24.3203 30.3333 23.267 30.3333ZM7.45366 3.66663C6.72033 3.66663 6.04033 3.98663 5.38699 4.62663C4.77366 5.19996 4.34699 5.82663 4.08033 6.50663C3.80033 7.19996 3.66699 7.93329 3.66699 8.71996C3.66699 9.95996 3.96033 11.3066 4.54699 12.6933C5.14699 14.1066 5.98699 15.5733 7.05366 17.04C8.12033 18.5066 9.33366 19.9333 10.667 21.28C12.0003 22.6 13.4403 23.8266 14.9203 24.9066C16.3603 25.96 17.8403 26.8133 19.307 27.4266C21.587 28.4 23.7203 28.6266 25.4803 27.8933C26.1603 27.6133 26.7603 27.1866 27.307 26.5733C27.6137 26.24 27.8537 25.88 28.0537 25.4533C28.2137 25.12 28.2937 24.7733 28.2937 24.4266C28.2937 24.2133 28.2537 24 28.147 23.76C28.107 23.68 28.027 23.5333 27.7737 23.36L23.347 20.2133C23.0803 20.0266 22.8403 19.8933 22.6137 19.8C22.3203 19.68 22.2003 19.56 21.747 19.84C21.4803 19.9733 21.2403 20.1733 20.9737 20.44L19.9603 21.44C19.4403 21.9466 18.6403 22.0666 18.027 21.84L17.667 21.68C17.1203 21.3866 16.4803 20.9333 15.7737 20.3333C15.1337 19.7866 14.4403 19.1466 13.6003 18.32C12.947 17.6533 12.2937 16.9466 11.6137 16.16C10.987 15.4266 10.5337 14.8 10.2537 14.28L10.0937 13.88C10.0137 13.5733 9.98699 13.4 9.98699 13.2133C9.98699 12.7333 10.1603 12.3066 10.4937 11.9733L11.4937 10.9333C11.7603 10.6666 11.9603 10.4133 12.0937 10.1866C12.2003 10.0133 12.2403 9.86663 12.2403 9.73329C12.2403 9.62663 12.2003 9.46663 12.1337 9.30663C12.0403 9.09329 11.8937 8.85329 11.707 8.59996L8.61366 4.22663C8.48033 4.03996 8.32033 3.90663 8.12033 3.81329C7.90699 3.71996 7.68033 3.66663 7.45366 3.66663ZM18.6003 20.0133L18.387 20.92L18.747 19.9866C18.6803 19.9733 18.627 19.9866 18.6003 20.0133Z" fill="white"/>
<path id="Vector_2" d="M24.6667 13C24.12 13 23.6667 12.5467 23.6667 12C23.6667 11.52 23.1867 10.52 22.3867 9.66671C21.6 8.82671 20.7333 8.33337 20 8.33337C19.4533 8.33337 19 7.88004 19 7.33337C19 6.78671 19.4533 6.33337 20 6.33337C21.2933 6.33337 22.6533 7.02671 23.84 8.29337C24.9467 9.48004 25.6667 10.9334 25.6667 12C25.6667 12.5467 25.2133 13 24.6667 13Z" fill="white"/>
<path id="Vector_3" d="M29.3333 13C28.7867 13 28.3333 12.5466 28.3333 12C28.3333 7.39996 24.6 3.66663 20 3.66663C19.4533 3.66663 19 3.21329 19 2.66663C19 2.11996 19.4533 1.66663 20 1.66663C25.6933 1.66663 30.3333 6.30663 30.3333 12C30.3333 12.5466 29.88 13 29.3333 13Z" fill="white"/>
</g>
</g>
</svg>
