<svg width="32" height="32" viewBox="0 0 32 32" fill="none" xmlns="http://www.w3.org/2000/svg">
<g id="city">
<path id="Vector (Stroke)" fill-rule="evenodd" clip-rule="evenodd" d="M10.0153 11.2553C10.4258 11.6247 10.4591 12.257 10.0896 12.6675L10.0763 12.6823C9.70685 13.0928 9.07456 13.1261 8.66405 12.7567C8.25354 12.3872 8.22026 11.7549 8.58972 11.3444L8.60306 11.3296C8.97252 10.9191 9.60481 10.8858 10.0153 11.2553Z" fill="#D8173C"/>
<path id="Vector (Stroke)_2" fill-rule="evenodd" clip-rule="evenodd" d="M15.3493 11.2553C15.7598 11.6247 15.7931 12.257 15.4236 12.6675L15.4103 12.6823C15.0408 13.0928 14.4085 13.1261 13.998 12.7567C13.5875 12.3872 13.5542 11.7549 13.9237 11.3444L13.937 11.3296C14.3065 10.9191 14.9388 10.8858 15.3493 11.2553Z" fill="#D8173C"/>
<path id="Vector (Stroke)_3" fill-rule="evenodd" clip-rule="evenodd" d="M10.0153 16.5886C10.4258 16.958 10.4591 17.5903 10.0896 18.0008L10.0763 18.0156C9.70685 18.4261 9.07456 18.4594 8.66405 18.09C8.25354 17.7205 8.22026 17.0882 8.58972 16.6777L8.60306 16.6629C8.97252 16.2524 9.60481 16.2191 10.0153 16.5886Z" fill="#D8173C"/>
<path id="Vector (Stroke)_4" fill-rule="evenodd" clip-rule="evenodd" d="M15.3493 16.5886C15.7598 16.958 15.7931 17.5903 15.4236 18.0008L15.4103 18.0156C15.0408 18.4261 14.4085 18.4594 13.998 18.09C13.5875 17.7205 13.5542 17.0882 13.9237 16.6777L13.937 16.6629C14.3065 16.2524 14.9388 16.2191 15.3493 16.5886Z" fill="#D8173C"/>
<path id="Vector (Stroke)_5" fill-rule="evenodd" clip-rule="evenodd" d="M10.0153 21.9219C10.4258 22.2913 10.4591 22.9236 10.0896 23.3341L10.0763 23.3489C9.70685 23.7595 9.07456 23.7927 8.66405 23.4233C8.25354 23.0538 8.22026 22.4215 8.58972 22.011L8.60306 21.9962C8.97252 21.5857 9.60481 21.5524 10.0153 21.9219Z" fill="#D8173C"/>
<path id="Vector (Stroke)_6" fill-rule="evenodd" clip-rule="evenodd" d="M15.3493 21.9219C15.7598 22.2913 15.7931 22.9236 15.4236 23.3341L15.4103 23.3489C15.0408 23.7595 14.4085 23.7927 13.998 23.4233C13.5875 23.0538 13.5542 22.4215 13.9237 22.011L13.937 21.9962C14.3065 21.5857 14.9388 21.5524 15.3493 21.9219Z" fill="#D8173C"/>
<path id="Vector (Stroke)_7" fill-rule="evenodd" clip-rule="evenodd" d="M27 27V13H21V16.3333H22.6667C23.219 16.3333 23.6667 16.781 23.6667 17.3333C23.6667 17.8856 23.219 18.3333 22.6667 18.3333H21V21.6667H22.6667C23.219 21.6667 23.6667 22.1144 23.6667 22.6667C23.6667 23.219 23.219 23.6667 22.6667 23.6667H21V27H27ZM19 27V5H13V6.66667C13 7.21895 12.5523 7.66667 12 7.66667H5V27H19ZM21 11H27.2C28.1941 11 29 11.8059 29 12.8V27.2C29 28.1941 28.1941 29 27.2 29H4.8C3.80589 29 3 28.1941 3 27.2V7.46667C3 6.47255 3.80589 5.66667 4.8 5.66667H11V4.8C11 3.80589 11.8059 3 12.8 3H19.2C20.1941 3 21 3.80589 21 4.8V11Z" fill="#D8173C"/>
</g>
</svg>
