<svg width="32" height="32" viewBox="0 0 32 32" fill="none" xmlns="http://www.w3.org/2000/svg">
<g id="farm">
<path id="Vector (Stroke)" fill-rule="evenodd" clip-rule="evenodd" d="M19.3741 27.3738C19.5616 27.1863 19.667 26.9319 19.667 26.6667V10.6667C19.667 10.2879 19.453 9.94165 19.1142 9.77226L11.1142 5.77226C10.8327 5.6315 10.5013 5.6315 10.2198 5.77226L2.21978 9.77226C1.88099 9.94165 1.66699 10.2879 1.66699 10.6667V26.6667C1.66699 26.9319 1.77235 27.1863 1.95988 27.3738C2.14742 27.5613 2.40178 27.6667 2.66699 27.6667H18.667C18.9322 27.6667 19.1866 27.5613 19.3741 27.3738ZM17.667 25.6667H15.667V17.3334C15.667 16.7811 15.2193 16.3334 14.667 16.3334H6.66699C6.11471 16.3334 5.66699 16.7811 5.66699 17.3334V25.6667H3.66699L3.66699 11.2847L10.667 7.78472L17.667 11.2847V25.6667ZM7.66699 25.6667V18.3334H13.667V25.6667H7.66699Z" fill="#D8173C"/>
<path id="Vector (Stroke)_2" fill-rule="evenodd" clip-rule="evenodd" d="M24 27.6667C24.5523 27.6667 25 27.219 25 26.6667V18.6667C25 18.1144 24.5523 17.6667 24 17.6667C23.4477 17.6667 23 18.1144 23 18.6667V26.6667C23 27.219 23.4477 27.6667 24 27.6667Z" fill="#D8173C"/>
<path id="Vector (Stroke)_3" fill-rule="evenodd" clip-rule="evenodd" d="M30.333 22.6667C30.333 22.1144 29.8853 21.6667 29.333 21.6667H18.6663C18.1141 21.6667 17.6663 22.1144 17.6663 22.6667C17.6663 23.219 18.1141 23.6667 18.6663 23.6667H29.333C29.8853 23.6667 30.333 23.219 30.333 22.6667Z" fill="#D8173C"/>
<path id="Vector (Stroke)_4" fill-rule="evenodd" clip-rule="evenodd" d="M30.333 18.6667C30.333 18.1144 29.8853 17.6667 29.333 17.6667H18.6663C18.1141 17.6667 17.6663 18.1144 17.6663 18.6667C17.6663 19.219 18.1141 19.6667 18.6663 19.6667H29.333C29.8853 19.6667 30.333 19.219 30.333 18.6667Z" fill="#D8173C"/>
</g>
</svg>
