<svg width="32" height="32" viewBox="0 0 32 32" fill="none" xmlns="http://www.w3.org/2000/svg">
<g id="graph-up">
<path id="Vector (Stroke)" fill-rule="evenodd" clip-rule="evenodd" d="M4.33301 26.6667C4.33301 27.219 4.78072 27.6667 5.33301 27.6667H26.6663C27.2186 27.6667 27.6663 27.219 27.6663 26.6667C27.6663 26.1145 27.2186 25.6667 26.6663 25.6667H6.33301V5.33342C6.33301 4.78113 5.88529 4.33342 5.33301 4.33342C4.78072 4.33342 4.33301 4.78113 4.33301 5.33342V26.6667Z" fill="white"/>
<path id="Vector (Stroke)_2" fill-rule="evenodd" clip-rule="evenodd" d="M4.60347 22.6839C4.9812 23.0869 5.61404 23.1073 6.01695 22.7295L15.9772 13.3918L19.2926 16.7071C19.6831 17.0976 20.3163 17.0976 20.7068 16.7071L26.7068 10.7071C27.0973 10.3166 27.0973 9.68341 26.7068 9.29289C26.3163 8.90237 25.6831 8.90237 25.2926 9.29289L19.9997 14.5858L16.7068 11.2929C16.3251 10.9112 15.7095 10.9013 15.3157 11.2705L4.64907 21.2705C4.24616 21.6482 4.22574 22.281 4.60347 22.6839Z" fill="white"/>
</g>
</svg>
