<svg width="32" height="32" viewBox="0 0 32 32" fill="none" xmlns="http://www.w3.org/2000/svg">
<g id="notes">
<path id="Vector (Stroke)" fill-rule="evenodd" clip-rule="evenodd" d="M9.66699 18.6666C9.66699 18.1143 10.1147 17.6666 10.667 17.6666L21.3337 17.6666C21.8859 17.6666 22.3337 18.1143 22.3337 18.6666C22.3337 19.2189 21.8859 19.6666 21.3337 19.6666L10.667 19.6666C10.1147 19.6666 9.66699 19.2189 9.66699 18.6666Z" fill="white"/>
<path id="Vector (Stroke)_2" fill-rule="evenodd" clip-rule="evenodd" d="M9.66699 13.3334C9.66699 12.7811 10.1147 12.3334 10.667 12.3334L13.3337 12.3334C13.8859 12.3334 14.3337 12.7811 14.3337 13.3334C14.3337 13.8857 13.8859 14.3334 13.3337 14.3334L10.667 14.3334C10.1147 14.3334 9.66699 13.8857 9.66699 13.3334Z" fill="white"/>
<path id="Vector (Stroke)_3" fill-rule="evenodd" clip-rule="evenodd" d="M9.66699 24C9.66699 23.4477 10.1147 23 10.667 23L16.0003 23C16.5526 23 17.0003 23.4477 17.0003 24C17.0003 24.5523 16.5526 25 16.0003 25L10.667 25C10.1147 25 9.66699 24.5523 9.66699 24Z" fill="white"/>
<path id="Vector (Stroke)_4" fill-rule="evenodd" clip-rule="evenodd" d="M13.333 0.333374C13.8853 0.333374 14.333 0.781089 14.333 1.33337V6.66671C14.333 7.21899 13.8853 7.66671 13.333 7.66671C12.7807 7.66671 12.333 7.21899 12.333 6.66671V5.00004H7.99967C7.0792 5.00004 6.33301 5.74623 6.33301 6.66671V26.6667C6.33301 27.5872 7.0792 28.3334 7.99967 28.3334H23.9997C24.9201 28.3334 25.6663 27.5872 25.6663 26.6667V6.66671C25.6663 5.74623 24.9201 5.00004 23.9997 5.00004H19.333C18.7807 5.00004 18.333 4.55233 18.333 4.00004C18.333 3.44776 18.7807 3.00004 19.333 3.00004H23.9997C26.0247 3.00004 27.6663 4.64166 27.6663 6.66671V26.6667C27.6663 28.6918 26.0247 30.3334 23.9997 30.3334H7.99967C5.97463 30.3334 4.33301 28.6917 4.33301 26.6667V6.66671C4.33301 4.64166 5.97463 3.00004 7.99967 3.00004H12.333V1.33337C12.333 0.781089 12.7807 0.333374 13.333 0.333374Z" fill="white"/>
</g>
</svg>
