<svg width="32" height="32" viewBox="0 0 32 32" fill="none" xmlns="http://www.w3.org/2000/svg">
<g id="page-edit">
<path id="Vector (Stroke)" fill-rule="evenodd" clip-rule="evenodd" d="M6.33301 3.66663V28.3333H14.6663C15.2186 28.3333 15.6663 28.781 15.6663 29.3333C15.6663 29.8856 15.2186 30.3333 14.6663 30.3333H6.13301C5.13889 30.3333 4.33301 29.5274 4.33301 28.5333V3.46663C4.33301 2.47251 5.1389 1.66663 6.13301 1.66663H21.6683C22.1457 1.66663 22.6035 1.85627 22.9411 2.19383L27.1391 6.39187C27.4767 6.72944 27.6663 7.18727 27.6663 7.66466V16C27.6663 16.5522 27.2186 17 26.6663 17C26.1141 17 25.6663 16.5522 25.6663 16V7.74751L21.5855 3.66663H6.33301Z" fill="white"/>
<path id="Vector (Stroke)_2" fill-rule="evenodd" clip-rule="evenodd" d="M9.66699 8C9.66699 7.44772 10.1147 7 10.667 7H16.0003C16.5526 7 17.0003 7.44772 17.0003 8C17.0003 8.55228 16.5526 9 16.0003 9H10.667C10.1147 9 9.66699 8.55228 9.66699 8ZM9.66699 13.3333C9.66699 12.781 10.1147 12.3333 10.667 12.3333H21.3337C21.8859 12.3333 22.3337 12.781 22.3337 13.3333C22.3337 13.8856 21.8859 14.3333 21.3337 14.3333H10.667C10.1147 14.3333 9.66699 13.8856 9.66699 13.3333ZM9.66699 18.6667C9.66699 18.1144 10.1147 17.6667 10.667 17.6667H14.667C15.2193 17.6667 15.667 18.1144 15.667 18.6667C15.667 19.219 15.2193 19.6667 14.667 19.6667H10.667C10.1147 19.6667 9.66699 19.219 9.66699 18.6667Z" fill="white"/>
<path id="Vector (Stroke)_3" fill-rule="evenodd" clip-rule="evenodd" d="M28.0931 24.074C29.0675 23.0996 29.0675 21.5198 28.0931 20.5454C27.1187 19.571 25.5389 19.571 24.5645 20.5454L19.2431 25.8668C18.8933 26.2166 18.6637 26.6685 18.5875 27.1573L18.2639 29.2324C18.2148 29.5479 18.3191 29.8679 18.5449 30.0936C18.7706 30.3194 19.0906 30.4238 19.406 30.3746L21.4811 30.0511C21.9699 29.9749 22.4218 29.7453 22.7716 29.3955L28.0931 24.074ZM26.6789 21.9596C26.8723 22.153 26.8723 22.4664 26.6789 22.6598L26.0527 23.286L25.3525 22.5858L25.9787 21.9596C26.1721 21.7663 26.4856 21.7663 26.6789 21.9596ZM23.9383 24L24.6385 24.7002L21.3574 27.9813C21.3074 28.0313 21.2429 28.064 21.1731 28.0749L20.4511 28.1875L20.5637 27.4654C20.5745 27.3956 20.6073 27.331 20.6573 27.281L23.9383 24Z" fill="white"/>
<path id="Vector (Stroke)_4" fill-rule="evenodd" clip-rule="evenodd" d="M21.333 1.66663C21.8853 1.66663 22.333 2.11434 22.333 2.66663V6.99996H26.6663C27.2186 6.99996 27.6663 7.44767 27.6663 7.99996C27.6663 8.55224 27.2186 8.99996 26.6663 8.99996H22.133C21.1389 8.99996 20.333 8.19407 20.333 7.19996V2.66663C20.333 2.11434 20.7807 1.66663 21.333 1.66663Z" fill="white"/>
</g>
</svg>
