<svg width="33" height="32" viewBox="0 0 33 32" fill="none" xmlns="http://www.w3.org/2000/svg">
<g id="vuesax/outline/receipt-item">
<g id="receipt-item">
<path id="Vector" d="M26.8237 15.6666H22.2637C21.717 15.6666 21.2637 15.2133 21.2637 14.6666V5.34662C21.2637 4.35996 21.6503 3.43996 22.3437 2.74663C23.037 2.05329 23.957 1.66663 24.9437 1.66663H24.957C26.6237 1.67996 28.197 2.33329 29.397 3.51996C30.597 4.73329 31.2503 6.33329 31.2503 7.99996V11.2266C31.2637 13.88 29.477 15.6666 26.8237 15.6666ZM23.2637 13.6666H26.8237C28.3703 13.6666 29.2637 12.7733 29.2637 11.2266V7.99996C29.2637 6.85329 28.8103 5.75996 27.997 4.93329C27.1837 4.13329 26.0903 3.67996 24.957 3.66663C24.957 3.66663 24.957 3.66663 24.9437 3.66663C24.5037 3.66663 24.077 3.83996 23.757 4.15996C23.437 4.47996 23.2637 4.89329 23.2637 5.34662V13.6666Z" fill="white"/>
<path id="Vector_2" d="M12.931 31.1066C12.3043 31.1066 11.7177 30.8666 11.2777 30.4133L9.06432 28.1866C8.94432 28.0666 8.75766 28.0533 8.62432 28.16L6.33099 29.8666C5.62432 30.4 4.69099 30.4933 3.89099 30.0933C3.09099 29.6933 2.59766 28.8933 2.59766 28V7.99996C2.59766 3.97329 4.90432 1.66663 8.93099 1.66663H24.931C25.4777 1.66663 25.931 2.11996 25.931 2.66663C25.931 3.21329 25.4777 3.66663 24.931 3.66663C24.011 3.66663 23.2643 4.41329 23.2643 5.33329V28C23.2643 28.8933 22.771 29.6933 21.971 30.0933C21.171 30.4933 20.2377 30.4133 19.531 29.88L17.251 28.1733C17.1177 28.0666 16.931 28.0933 16.8243 28.2L14.5843 30.44C14.1443 30.8666 13.5577 31.1066 12.931 31.1066ZM8.81099 26.0933C9.42432 26.0933 10.0243 26.32 10.4777 26.7866L12.691 29.0133C12.771 29.0933 12.8777 29.1066 12.931 29.1066C12.9843 29.1066 13.091 29.0933 13.171 29.0133L15.411 26.7733C16.2377 25.9466 17.5443 25.8666 18.4643 26.5733L20.731 28.2666C20.8777 28.3733 21.011 28.3333 21.0777 28.2933C21.1443 28.2533 21.2643 28.1733 21.2643 28V5.33329C21.2643 4.73329 21.411 4.15996 21.6643 3.66663H8.93099C5.97099 3.66663 4.59766 5.03996 4.59766 7.99996V28C4.59766 28.1866 4.71766 28.2666 4.78432 28.3066C4.86432 28.3466 4.99766 28.3733 5.13099 28.2666L7.41099 26.56C7.82432 26.2533 8.31766 26.0933 8.81099 26.0933Z" fill="white"/>
<path id="Vector_3" d="M16.9307 18.3467H12.9307C12.384 18.3467 11.9307 17.8933 11.9307 17.3467C11.9307 16.8 12.384 16.3467 12.9307 16.3467H16.9307C17.4773 16.3467 17.9307 16.8 17.9307 17.3467C17.9307 17.8933 17.4773 18.3467 16.9307 18.3467Z" fill="white"/>
<path id="Vector_4" d="M16.9307 13.0133H12.9307C12.384 13.0133 11.9307 12.56 11.9307 12.0133C11.9307 11.4666 12.384 11.0133 12.9307 11.0133H16.9307C17.4773 11.0133 17.9307 11.4666 17.9307 12.0133C17.9307 12.56 17.4773 13.0133 16.9307 13.0133Z" fill="white"/>
<path id="Vector_5" d="M8.89095 13.3467C8.15762 13.3467 7.55762 12.7467 7.55762 12.0134C7.55762 11.2801 8.15762 10.6801 8.89095 10.6801C9.62428 10.6801 10.2243 11.2801 10.2243 12.0134C10.2243 12.7467 9.62428 13.3467 8.89095 13.3467Z" fill="white"/>
<path id="Vector_6" d="M8.89095 18.68C8.15762 18.68 7.55762 18.08 7.55762 17.3466C7.55762 16.6133 8.15762 16.0133 8.89095 16.0133C9.62428 16.0133 10.2243 16.6133 10.2243 17.3466C10.2243 18.08 9.62428 18.68 8.89095 18.68Z" fill="white"/>
</g>
</g>
</svg>
