<svg width="32" height="32" viewBox="0 0 32 32" fill="none" xmlns="http://www.w3.org/2000/svg">
<g id="small-shop-alt">
<path id="Rectangle (Stroke)" fill-rule="evenodd" clip-rule="evenodd" d="M5 13.3333V25.3333C5 26.2538 5.74619 27 6.66667 27H25.3333C26.2538 27 27 26.2538 27 25.3333V13.3333H29V25.3333C29 27.3584 27.3584 29 25.3333 29H6.66667C4.64162 29 3 27.3584 3 25.3333V13.3333H5Z" fill="#D8173C"/>
<path id="Rectangle (Stroke)_2" fill-rule="evenodd" clip-rule="evenodd" d="M10.7773 20C10.7773 17.9749 12.419 16.3333 14.444 16.3333H17.1107C19.1357 16.3333 20.7773 17.9749 20.7773 20V28H18.7773V20C18.7773 19.0795 18.0312 18.3333 17.1107 18.3333H14.444C13.5235 18.3333 12.7773 19.0795 12.7773 20V28H10.7773V20Z" fill="#D8173C"/>
<path id="Rectangle 5 (Stroke)" fill-rule="evenodd" clip-rule="evenodd" d="M19.5801 3H26.0634C26.8671 3 27.5734 3.53276 27.7942 4.3055L30.0529 12.2109C30.3419 13.2226 29.6965 14.3168 28.5843 14.4536C27.9972 14.5258 27.178 14.6025 26.3198 14.6055C25.4753 14.6084 24.5248 14.541 23.7061 14.2891C22.7845 14.0055 21.6736 13.3722 21.1592 13.0656C20.6559 12.7656 20.3505 12.2452 20.3041 11.6881L19.5801 3ZM21.7537 5L22.2878 11.4095C22.8232 11.7238 23.6721 12.1861 24.2943 12.3776C24.83 12.5424 25.5467 12.6082 26.3128 12.6055C26.9402 12.6033 27.5554 12.5557 28.0558 12.5015L25.9126 5H21.7537Z" fill="#D8173C"/>
<path id="Rectangle 4 (Stroke)" fill-rule="evenodd" clip-rule="evenodd" d="M10.4133 3H21.5869L22.2898 11.4357C22.345 12.0978 22.0296 12.7579 21.4295 13.112C20.8944 13.4278 19.8427 14.0178 18.9608 14.2891C17.9034 14.6145 16.9651 14.7927 16.0001 14.7927C15.0351 14.7927 14.0967 14.6145 13.0393 14.2891C12.1575 14.0178 11.1058 13.4278 10.5706 13.112C9.97055 12.7579 9.65512 12.0978 9.7103 11.4357L10.4133 3ZM12.2535 5L11.7148 11.4643C12.2567 11.7782 13.0437 12.1979 13.6275 12.3776C14.5608 12.6647 15.2937 12.7927 16.0001 12.7927C16.7064 12.7927 17.4394 12.6647 18.3727 12.3776C18.9564 12.1979 19.7434 11.7782 20.2853 11.4643L19.7466 5H12.2535Z" fill="#D8173C"/>
<path id="Rectangle 3 (Stroke)" fill-rule="evenodd" clip-rule="evenodd" d="M6.08809 5L3.94481 12.5015C4.44528 12.5557 5.06049 12.6033 5.6879 12.6055C6.45394 12.6082 7.1707 12.5424 7.70637 12.3776C8.32855 12.1861 9.17749 11.7238 9.71286 11.4095L10.247 5H6.08809ZM4.20648 4.3055C4.42727 3.53276 5.13356 3 5.93723 3H12.4206L11.6966 11.6881C11.6502 12.2452 11.3447 12.7656 10.8415 13.0656C10.327 13.3722 9.21614 14.0055 8.29454 14.2891C7.47585 14.541 6.52539 14.6084 5.6809 14.6055C4.82261 14.6025 4.00349 14.5258 3.41639 14.4536C2.30413 14.3168 1.65874 13.2226 1.94781 12.2109L4.20648 4.3055Z" fill="#D8173C"/>
</g>
</svg>
