<svg width="460" height="443" viewBox="0 0 460 443" fill="none" xmlns="http://www.w3.org/2000/svg">
<g opacity="0.2">
<path d="M74.5622 169.817C79.5915 164.794 81.554 157.912 80.6087 151.369L131.244 100.738C137.782 101.67 144.671 99.7031 149.702 94.6689C158.153 86.224 158.153 72.4944 149.702 64.0332C141.238 55.5721 127.519 55.5938 119.072 64.0441C114.037 69.0728 112.064 75.965 113.016 82.4974L95.4917 100.024L95.2618 98.4227L51.4904 54.6567L28.7842 48.9034L34.5305 71.6226L78.3062 115.383L79.9021 115.612L62.3782 133.134C55.8447 132.18 48.9619 134.136 43.9244 139.181C35.4796 147.621 35.4708 161.35 43.9244 169.817C52.3757 178.283 66.1157 178.267 74.5622 169.817Z" fill="#646464"/>
<path d="M51.4181 48.9303L50.1431 21.7544L0 20.109L1.63884 70.2603L28.8055 71.5352L25.8983 45.9991L51.4181 48.9303Z" fill="#646464"/>
<path d="M425.164 71.6226L430.895 48.9034L408.203 54.6567L364.443 98.4227L364.214 100.03L346.676 82.4974C347.635 75.965 345.663 69.0728 340.634 64.0441C332.167 55.5938 318.465 55.5721 309.998 64.0332C301.537 72.4944 301.537 86.224 309.998 94.6689C315.022 99.7031 321.903 101.67 328.441 100.738L379.082 151.369C378.129 157.912 380.101 164.794 385.135 169.817C393.58 178.267 407.315 178.283 415.771 169.817C424.216 161.35 424.216 147.621 415.771 139.181C410.737 134.142 403.85 132.18 397.323 133.134L379.796 115.612L381.392 115.383L425.164 71.6226Z" fill="#646464"/>
<path d="M409.545 21.7544L408.275 48.9303L433.801 45.9991L430.891 71.5352L458.051 70.2603L459.702 20.109L409.545 21.7544Z" fill="#646464"/>
<path d="M319.267 362.55L356.364 399.669L403.824 426.087L326.622 348.885C324.219 353.696 321.751 358.229 319.267 362.55Z" fill="#646464"/>
<path d="M101.635 144.918L117.835 161.126L129.545 151.815L112.146 134.397L101.635 144.918Z" fill="#646464"/>
<path d="M334.614 331.511C332.494 336.545 330.282 341.356 328.043 345.948L405.997 423.908L379.573 376.47L334.614 331.511Z" fill="#646464"/>
<path d="M143.664 140.566L124.831 121.72L114.312 132.224L131.958 149.877L143.664 140.566Z" fill="#646464"/>
<path d="M55.8682 426.087L103.317 399.669L140.429 362.55C137.931 358.24 135.481 353.696 133.057 348.885L55.8682 426.087Z" fill="#646464"/>
<path d="M358.059 144.919L347.555 134.398L330.153 151.816L341.856 161.133L358.059 144.919Z" fill="#646464"/>
<path d="M316.015 140.565L327.723 149.887L345.381 132.223L334.866 121.719L316.015 140.565Z" fill="#646464"/>
<path d="M125.079 331.511L80.1243 376.47L53.7002 423.908L131.636 345.97C129.403 341.356 127.196 336.556 125.079 331.511Z" fill="#646464"/>
<path d="M229.86 381.014C229.86 381.014 146.501 346.259 146.501 208.031L229.86 141.682L313.213 208.031C313.213 346.259 229.86 381.014 229.86 381.014ZM229.86 406.904C229.86 406.904 128.469 364.62 128.469 196.497L229.86 115.792L331.258 196.497C331.258 364.62 229.86 406.904 229.86 406.904ZM241.775 89.3245C241.012 81.8222 236.616 79.5284 233.259 78.891L230.808 72.4512C231.919 70.7622 233.565 68.0544 235.259 64.5948C248.951 44.9973 263.726 42.8289 263.726 42.8289C263.508 73.677 288.69 79.4141 288.69 79.4141C269.153 61.1242 287.23 26.8219 287.23 26.8219C264.429 22.6213 250.411 31.0388 241.873 41.9136C242.015 40.3826 242.107 38.8354 242.107 37.2499C242.107 16.6827 229.391 3.05176e-05 229.391 3.05176e-05C229.391 3.05176e-05 216.653 16.6827 216.653 37.2499C216.653 38.8245 216.751 40.3663 216.887 41.8973C208.345 31.028 194.332 22.6213 171.552 26.8219C171.552 26.8219 189.613 61.1242 170.087 79.4141C170.087 79.4141 195.28 73.677 195.056 42.8289C195.056 42.8289 209.81 44.9973 223.496 64.5566C225.207 68.0435 226.858 70.7568 227.975 72.4512L225.528 78.891C222.063 79.5448 217.492 81.9966 216.958 90.0818L103.428 180.447C103.428 390.069 229.849 442.797 229.849 442.797C229.849 442.797 356.265 390.069 356.265 180.447L241.775 89.3245Z" fill="#646464"/>
</g>
</svg>
