<svg width="32" height="32" viewBox="0 0 32 32" fill="none" xmlns="http://www.w3.org/2000/svg">
<g id="tower-check">
<path id="Vector (Stroke)" fill-rule="evenodd" clip-rule="evenodd" d="M16.6261 24.6263C17.0166 24.2357 17.6497 24.2357 18.0403 24.6263L21.3332 27.9192L27.2927 21.9596C27.6832 21.5691 28.3164 21.5691 28.7069 21.9596C29.0975 22.3501 29.0975 22.9833 28.7069 23.3738L22.0403 30.0405C21.6497 30.431 21.0166 30.431 20.6261 30.0405L16.6261 26.0405C16.2355 25.65 16.2355 25.0168 16.6261 24.6263Z" fill="white"/>
<path id="Vector (Stroke)_2" fill-rule="evenodd" clip-rule="evenodd" d="M3 3.46663C3 2.47251 3.80589 1.66663 4.8 1.66663H7.2C8.19411 1.66663 9 2.47251 9 3.46663V5.66663H12.3333V3.46663C12.3333 2.47251 13.1392 1.66663 14.1333 1.66663H17.8667C18.8608 1.66663 19.6667 2.47251 19.6667 3.46663V5.66663H23V3.46663C23 2.47251 23.8059 1.66663 24.8 1.66663H27.2C28.1941 1.66663 29 2.47251 29 3.46663V10.4244C29 10.7798 28.8948 11.1272 28.6977 11.4229L26.3333 14.9694V18C26.3333 18.5522 25.8856 19 25.3333 19C24.781 19 24.3333 18.5522 24.3333 18V14.9088C24.3333 14.5535 24.4385 14.2061 24.6356 13.9104L27 10.3638V3.66663H25V5.86663C25 6.86074 24.1941 7.66663 23.2 7.66663H19.4667C18.4726 7.66663 17.6667 6.86074 17.6667 5.86663V3.66663H14.3333V5.86663C14.3333 6.86074 13.5274 7.66663 12.5333 7.66663H8.8C7.80589 7.66663 7 6.86074 7 5.86663V3.66663H5V10.3639L7.36436 13.9104C7.56148 14.2061 7.66667 14.5535 7.66667 14.9088V26.6666C7.66667 27.5871 8.41286 28.3333 9.33333 28.3333H12C12.5523 28.3333 13 28.781 13 29.3333C13 29.8856 12.5523 30.3333 12 30.3333H9.33333C7.30829 30.3333 5.66667 28.6917 5.66667 26.6666V14.9694L3.30231 11.4229C3.10519 11.1272 3 10.7798 3 10.4244V3.46663Z" fill="white"/>
</g>
</svg>
