<svg width="32" height="32" viewBox="0 0 32 32" fill="none" xmlns="http://www.w3.org/2000/svg">
<g id="video-camera">
<path id="Vector (Stroke)" fill-rule="evenodd" clip-rule="evenodd" d="M5 10.3333V21.6666H19V10.3333H5ZM3 10.1333C3 9.1392 3.80589 8.33331 4.8 8.33331H19.2C20.1941 8.33331 21 9.1392 21 10.1333V13.8649L26.0477 9.65855C27.2201 8.68155 29 9.51524 29 11.0413V20.9586C29 22.4847 27.2201 23.3184 26.0477 22.3414L21 18.135V21.8666C21 22.8608 20.1941 23.6666 19.2 23.6666H4.8C3.80589 23.6666 3 22.8608 3 21.8666V10.1333ZM21.562 16L27 20.5316V11.4684L21.562 16Z" fill="#D8173C"/>
</g>
</svg>
