<svg width="24" height="25" viewBox="0 0 24 25" fill="none" xmlns="http://www.w3.org/2000/svg">
<g id="clock">
<path id="Vector (Stroke)" fill-rule="evenodd" clip-rule="evenodd" d="M12 5.36673C12.4142 5.36673 12.75 5.70252 12.75 6.11673L12.75 11.3667L18 11.3667C18.4142 11.3667 18.75 11.7025 18.75 12.1167C18.75 12.5309 18.4142 12.8667 18 12.8667L12 12.8667C11.5858 12.8667 11.25 12.5309 11.25 12.1167L11.25 6.11673C11.25 5.70252 11.5858 5.36673 12 5.36673Z" fill="#D6163B"/>
<path id="Vector (Stroke)_2" fill-rule="evenodd" clip-rule="evenodd" d="M12 2.86673C6.89137 2.86673 2.75 7.0081 2.75 12.1167C2.75 17.2254 6.89137 21.3667 12 21.3667C17.1086 21.3667 21.25 17.2254 21.25 12.1167C21.25 7.0081 17.1086 2.86673 12 2.86673ZM1.25 12.1167C1.25 6.17967 6.06294 1.36673 12 1.36673C17.9371 1.36673 22.75 6.17967 22.75 12.1167C22.75 18.0538 17.9371 22.8667 12 22.8667C6.06294 22.8667 1.25 18.0538 1.25 12.1167Z" fill="#D6163B"/>
</g>
</svg>
