<svg width="18" height="19" viewBox="0 0 18 19" fill="none" xmlns="http://www.w3.org/2000/svg">
<g id="headset-help">
<path id="Vector (Stroke)" fill-rule="evenodd" clip-rule="evenodd" d="M9 3.04599C5.99695 3.04599 3.5625 5.48044 3.5625 8.48349C3.5625 8.79415 3.31066 9.04599 3 9.04599C2.68934 9.04599 2.4375 8.79415 2.4375 8.48349C2.4375 4.85912 5.37563 1.92099 9 1.92099C12.6244 1.92099 15.5625 4.85912 15.5625 8.48349C15.5625 8.79415 15.3107 9.04599 15 9.04599C14.6893 9.04599 14.4375 8.79415 14.4375 8.48349C14.4375 5.48044 12.003 3.04599 9 3.04599Z" fill="white"/>
<path id="Vector (Stroke)_2" fill-rule="evenodd" clip-rule="evenodd" d="M3.80443 8.07757C4.44347 7.91781 5.0625 8.40114 5.0625 9.05984L5.0625 13.1571C5.0625 13.8158 4.44347 14.2992 3.80443 14.1394L2.49977 13.8132C1.58161 13.5837 0.9375 12.7587 0.9375 11.8123L0.9375 10.4047C0.9375 9.45824 1.58161 8.63328 2.49977 8.40374L3.80443 8.07757ZM3.9375 9.20393L2.77262 9.49515C2.35528 9.59949 2.0625 9.97447 2.0625 10.4047L2.0625 11.8123C2.0625 12.2425 2.35528 12.6175 2.77262 12.7218L3.9375 13.0131L3.9375 9.20393Z" fill="white"/>
<path id="Vector (Stroke)_3" fill-rule="evenodd" clip-rule="evenodd" d="M14.0625 9.20393V13.0131L15.2274 12.7218C15.6447 12.6175 15.9375 12.2425 15.9375 11.8123V10.4047C15.9375 9.97447 15.6447 9.59949 15.2274 9.49515L14.0625 9.20393ZM12.9375 9.05984C12.9375 8.40114 13.5565 7.91781 14.1956 8.07757L15.5002 8.40374C16.4184 8.63328 17.0625 9.45824 17.0625 10.4047V11.8123C17.0625 12.7587 16.4184 13.5837 15.5002 13.8132L14.1956 14.1394C13.5565 14.2992 12.9375 13.8158 12.9375 13.1571V9.05984Z" fill="white"/>
<path id="Vector (Stroke)_4" fill-rule="evenodd" clip-rule="evenodd" d="M14.4375 14.1085V13.7335H15.5625V14.1085C15.5625 15.2476 14.6391 16.171 13.5 16.171H10.875V15.046H13.5C14.0178 15.046 14.4375 14.6263 14.4375 14.1085Z" fill="white"/>
<path id="Vector (Stroke)_5" fill-rule="evenodd" clip-rule="evenodd" d="M7.875 15.046C7.56434 15.046 7.3125 15.2978 7.3125 15.6085C7.3125 15.9192 7.56434 16.171 7.875 16.171H10.125C10.4357 16.171 10.6875 15.9192 10.6875 15.6085C10.6875 15.2978 10.4357 15.046 10.125 15.046H7.875ZM6.1875 15.6085C6.1875 14.6765 6.94302 13.921 7.875 13.921H10.125C11.057 13.921 11.8125 14.6765 11.8125 15.6085C11.8125 16.5405 11.057 17.296 10.125 17.296H7.875C6.94302 17.296 6.1875 16.5405 6.1875 15.6085Z" fill="white"/>
</g>
</svg>
