<svg width="100" height="16" viewBox="0 0 100 16" fill="none" xmlns="http://www.w3.org/2000/svg">
<path id="Line 11" d="M1.70117 7C1.14889 7 0.701172 7.44772 0.701172 8C0.701172 8.55228 1.14889 9 1.70117 9V7ZM99.1094 8.70711C99.4999 8.31658 99.4999 7.68342 99.1094 7.29289L92.7455 0.928932C92.3549 0.538408 91.7218 0.538408 91.3313 0.928932C90.9407 1.31946 90.9407 1.95262 91.3313 2.34315L96.9881 8L91.3313 13.6569C90.9407 14.0474 90.9407 14.6805 91.3313 15.0711C91.7218 15.4616 92.3549 15.4616 92.7455 15.0711L99.1094 8.70711ZM1.70117 9H98.4023V7H1.70117V9Z" fill="white" fill-opacity="0.27"/>
</svg>
