<svg width="18" height="18" viewBox="0 0 18 18" fill="none" xmlns="http://www.w3.org/2000/svg">
<g id="mail-opened">
<path id="Vector (Stroke)" fill-rule="evenodd" clip-rule="evenodd" d="M4.78923 8.67743C4.96738 8.42292 5.31812 8.36103 5.57262 8.53918L9.00005 10.9384L12.4275 8.53918C12.682 8.36103 13.0327 8.42292 13.2109 8.67743C13.389 8.93193 13.3271 9.28267 13.0726 9.46082L9.32262 12.0858C9.12894 12.2214 8.87116 12.2214 8.67748 12.0858L4.92748 9.46082C4.67297 9.28267 4.61108 8.93193 4.78923 8.67743Z" fill="white"/>
<path id="Vector (Stroke)_2" fill-rule="evenodd" clip-rule="evenodd" d="M7.93885 1.48072C8.59201 1.08882 9.40799 1.08882 10.0611 1.48072L16.0611 5.08072C16.6824 5.45346 17.0625 6.12482 17.0625 6.8493V15C17.0625 16.1391 16.1391 17.0625 15 17.0625H3C1.86091 17.0625 0.9375 16.1391 0.9375 15V6.8493C0.9375 6.12482 1.31762 5.45346 1.93885 5.08072L7.93885 1.48072ZM9.48234 2.4454C9.18545 2.26726 8.81455 2.26726 8.51766 2.4454L2.51766 6.0454C2.23528 6.21483 2.0625 6.51999 2.0625 6.8493V15C2.0625 15.5178 2.48223 15.9375 3 15.9375H15C15.5178 15.9375 15.9375 15.5178 15.9375 15V6.8493C15.9375 6.51999 15.7647 6.21483 15.4823 6.0454L9.48234 2.4454Z" fill="white"/>
</g>
</svg>
