<svg width="24" height="24" viewBox="0 0 24 24" fill="none" xmlns="http://www.w3.org/2000/svg">
<g id="mail-opened">
<path id="Vector (Stroke)" fill-rule="evenodd" clip-rule="evenodd" d="M6.38564 11.5699C6.62318 11.2306 7.09082 11.148 7.43016 11.3856L12.0001 14.5845L16.57 11.3856C16.9093 11.148 17.377 11.2306 17.6145 11.5699C17.852 11.9092 17.7695 12.3769 17.4302 12.6144L12.4302 16.1144C12.1719 16.2952 11.8282 16.2952 11.57 16.1144L6.56997 12.6144C6.23063 12.3769 6.1481 11.9092 6.38564 11.5699Z" fill="#D6163B"/>
<path id="Vector (Stroke)_2" fill-rule="evenodd" clip-rule="evenodd" d="M10.5851 1.97429C11.456 1.45177 12.544 1.45177 13.4149 1.97429L21.4149 6.77429C22.2432 7.27128 22.75 8.16642 22.75 9.1324V20C22.75 21.5188 21.5188 22.75 20 22.75H4C2.48122 22.75 1.25 21.5188 1.25 20V9.1324C1.25 8.16642 1.75682 7.27128 2.58514 6.77429L10.5851 1.97429ZM12.6431 3.26053C12.2473 3.02302 11.7527 3.02302 11.3569 3.26053L3.35688 8.06053C2.98037 8.28644 2.75 8.69332 2.75 9.1324V20C2.75 20.6904 3.30964 21.25 4 21.25H20C20.6904 21.25 21.25 20.6904 21.25 20V9.1324C21.25 8.69332 21.0196 8.28644 20.6431 8.06053L12.6431 3.26053Z" fill="#D6163B"/>
</g>
</svg>
