<svg width="18" height="19" viewBox="0 0 18 19" fill="none" xmlns="http://www.w3.org/2000/svg">
<g id="ph:calculator-light" clip-path="url(#clip0_64_3825)">
<path id="Vector" d="M13.2356 3.05702H4.76505C4.62464 3.05702 4.48998 3.1128 4.3907 3.21208C4.29142 3.31136 4.23564 3.44602 4.23564 3.58643V7.82173C4.23564 7.96213 4.29142 8.09679 4.3907 8.19608C4.48998 8.29536 4.62464 8.35114 4.76505 8.35114H13.2356C13.376 8.35114 13.5107 8.29536 13.61 8.19608C13.7093 8.09679 13.7651 7.96213 13.7651 7.82173V3.58643C13.7651 3.44602 13.7093 3.31136 13.61 3.21208C13.5107 3.1128 13.376 3.05702 13.2356 3.05702ZM12.7062 7.29231H5.29446V4.11584H12.7062V7.29231ZM15.3533 0.23349H2.6474C2.31978 0.23349 2.00558 0.363637 1.77392 0.595299C1.54226 0.826962 1.41211 1.14116 1.41211 1.46878V16.9982C1.41211 17.3258 1.54226 17.64 1.77392 17.8717C2.00558 18.1033 2.31978 18.2335 2.6474 18.2335H15.3533C15.6809 18.2335 15.9951 18.1033 16.2268 17.8717C16.4584 17.64 16.5886 17.3258 16.5886 16.9982V1.46878C16.5886 1.14116 16.4584 0.826962 16.2268 0.595299C15.9951 0.363637 15.6809 0.23349 15.3533 0.23349ZM15.5298 16.9982C15.5298 17.045 15.5112 17.0899 15.4781 17.123C15.445 17.1561 15.4001 17.1747 15.3533 17.1747H2.6474C2.6006 17.1747 2.55571 17.1561 2.52262 17.123C2.48953 17.0899 2.47093 17.045 2.47093 16.9982V1.46878C2.47093 1.42198 2.48953 1.3771 2.52262 1.344C2.55571 1.31091 2.6006 1.29231 2.6474 1.29231H15.3533C15.4001 1.29231 15.445 1.31091 15.4781 1.344C15.5112 1.3771 15.5298 1.42198 15.5298 1.46878V16.9982ZM6.35329 10.9982C6.35329 11.1727 6.30154 11.3433 6.20458 11.4884C6.10763 11.6335 5.96982 11.7466 5.8086 11.8134C5.64737 11.8802 5.46995 11.8976 5.29879 11.8636C5.12763 11.8295 4.97041 11.7455 4.84702 11.6221C4.72362 11.4987 4.63958 11.3415 4.60553 11.1703C4.57149 10.9992 4.58896 10.8218 4.65575 10.6605C4.72253 10.4993 4.83562 10.3615 4.98072 10.2645C5.12583 10.1676 5.29642 10.1158 5.47093 10.1158C5.70495 10.1158 5.92938 10.2088 6.09485 10.3743C6.26032 10.5398 6.35329 10.7642 6.35329 10.9982ZM9.8827 10.9982C9.8827 11.1727 9.83095 11.3433 9.73399 11.4884C9.63704 11.6335 9.49924 11.7466 9.33801 11.8134C9.17678 11.8802 8.99937 11.8976 8.82821 11.8636C8.65705 11.8295 8.49983 11.7455 8.37643 11.6221C8.25303 11.4987 8.16899 11.3415 8.13495 11.1703C8.1009 10.9992 8.11837 10.8218 8.18516 10.6605C8.25194 10.4993 8.36503 10.3615 8.51014 10.2645C8.65524 10.1676 8.82583 10.1158 9.00034 10.1158C9.23436 10.1158 9.45879 10.2088 9.62426 10.3743C9.78974 10.5398 9.8827 10.7642 9.8827 10.9982ZM13.4121 10.9982C13.4121 11.1727 13.3604 11.3433 13.2634 11.4884C13.1665 11.6335 13.0286 11.7466 12.8674 11.8134C12.7062 11.8802 12.5288 11.8976 12.3576 11.8636C12.1865 11.8295 12.0292 11.7455 11.9058 11.6221C11.7824 11.4987 11.6984 11.3415 11.6644 11.1703C11.6303 10.9992 11.6478 10.8218 11.7146 10.6605C11.7814 10.4993 11.8944 10.3615 12.0395 10.2645C12.1846 10.1676 12.3552 10.1158 12.5298 10.1158C12.7638 10.1158 12.9882 10.2088 13.1537 10.3743C13.3191 10.5398 13.4121 10.7642 13.4121 10.9982ZM6.35329 14.5276C6.35329 14.7021 6.30154 14.8727 6.20458 15.0178C6.10763 15.1629 5.96982 15.276 5.8086 15.3428C5.64737 15.4096 5.46995 15.4271 5.29879 15.393C5.12763 15.359 4.97041 15.2749 4.84702 15.1515C4.72362 15.0281 4.63958 14.8709 4.60553 14.6997C4.57149 14.5286 4.58896 14.3512 4.65575 14.1899C4.72253 14.0287 4.83562 13.8909 4.98072 13.794C5.12583 13.697 5.29642 13.6453 5.47093 13.6453C5.70495 13.6453 5.92938 13.7382 6.09485 13.9037C6.26032 14.0692 6.35329 14.2936 6.35329 14.5276ZM9.8827 14.5276C9.8827 14.7021 9.83095 14.8727 9.73399 15.0178C9.63704 15.1629 9.49924 15.276 9.33801 15.3428C9.17678 15.4096 8.99937 15.4271 8.82821 15.393C8.65705 15.359 8.49983 15.2749 8.37643 15.1515C8.25303 15.0281 8.16899 14.8709 8.13495 14.6997C8.1009 14.5286 8.11837 14.3512 8.18516 14.1899C8.25194 14.0287 8.36503 13.8909 8.51014 13.794C8.65524 13.697 8.82583 13.6453 9.00034 13.6453C9.23436 13.6453 9.45879 13.7382 9.62426 13.9037C9.78974 14.0692 9.8827 14.2936 9.8827 14.5276ZM13.4121 14.5276C13.4121 14.7021 13.3604 14.8727 13.2634 15.0178C13.1665 15.1629 13.0286 15.276 12.8674 15.3428C12.7062 15.4096 12.5288 15.4271 12.3576 15.393C12.1865 15.359 12.0292 15.2749 11.9058 15.1515C11.7824 15.0281 11.6984 14.8709 11.6644 14.6997C11.6303 14.5286 11.6478 14.3512 11.7146 14.1899C11.7814 14.0287 11.8944 13.8909 12.0395 13.794C12.1846 13.697 12.3552 13.6453 12.5298 13.6453C12.7638 13.6453 12.9882 13.7382 13.1537 13.9037C13.3191 14.0692 13.4121 14.2936 13.4121 14.5276Z" fill="white"/>
</g>
<defs>
<clipPath id="clip0_64_3825">
<rect width="18" height="18" fill="white" transform="translate(0 0.23349)"/>
</clipPath>
</defs>
</svg>
