<svg width="18" height="18" viewBox="0 0 18 18" fill="none" xmlns="http://www.w3.org/2000/svg">
<g id="phone">
<path id="Path (Stroke)" fill-rule="evenodd" clip-rule="evenodd" d="M3.04775 0.9375L5.86094 0.9375C6.09522 0.9375 6.30497 1.08271 6.38744 1.30199L7.47902 4.20441C7.51515 4.30048 7.5243 4.40461 7.50549 4.50551L6.95853 7.43948C7.63081 9.02051 8.74125 10.0829 10.583 11.036L13.4817 10.4743C13.5846 10.4543 13.6911 10.4635 13.789 10.5009L16.7004 11.6103C16.9184 11.6934 17.0625 11.9025 17.0625 12.1359L17.0626 14.8241C17.0626 16.0432 15.9884 17.0326 14.732 16.7592C12.4418 16.2609 8.19881 14.9942 5.22731 12.0227C2.38096 9.1764 1.4273 5.24439 1.10627 3.11902C0.923094 1.90629 1.8957 0.9375 3.04775 0.9375ZM5.47153 2.0625L3.04775 2.0625C2.50849 2.0625 2.14923 2.49137 2.21865 2.951C2.52823 5.00061 3.43395 8.6384 6.0228 11.2273C8.75911 13.9636 12.7369 15.1738 14.9712 15.6599C15.4619 15.7667 15.9376 15.393 15.9376 14.8241L15.9376 12.5235L13.5383 11.6092L10.6071 12.1772C10.4851 12.2009 10.3588 12.1835 10.2477 12.1277C8.07704 11.0382 6.66784 9.74652 5.85279 7.70891C5.81319 7.60992 5.80255 7.50172 5.82208 7.39691L6.37079 4.45358L5.47153 2.0625Z" fill="white"/>
</g>
</svg>
