<svg width="24" height="25" viewBox="0 0 24 25" fill="none" xmlns="http://www.w3.org/2000/svg">
<g id="pin-alt">
<path id="Ellipse (Stroke)" fill-rule="evenodd" clip-rule="evenodd" d="M12 2.86673C7.99594 2.86673 4.75 6.11267 4.75 10.1167C4.75 11.024 5.17155 12.1876 5.90354 13.4877C6.6242 14.7677 7.59493 16.0925 8.58078 17.299C9.56431 18.5027 10.5499 19.573 11.2906 20.3432C11.5656 20.6291 11.8063 20.8732 12 21.0667C12.1937 20.8732 12.4344 20.6291 12.7094 20.3432C13.4501 19.573 14.4357 18.5027 15.4192 17.299C16.4051 16.0925 17.3758 14.7677 18.0965 13.4877C18.8284 12.1876 19.25 11.024 19.25 10.1167C19.25 6.11267 16.0041 2.86673 12 2.86673ZM12 22.1167C11.4841 22.6611 11.484 22.661 11.4838 22.6609L11.477 22.6544L11.4586 22.6368L11.389 22.5699C11.3286 22.5115 11.2408 22.426 11.1294 22.3161C10.9066 22.0962 10.5895 21.7781 10.2094 21.3829C9.45014 20.5935 8.43569 19.4921 7.41922 18.2481C6.40507 17.007 5.3758 15.6079 4.59646 14.2236C3.82845 12.8595 3.25 11.4186 3.25 10.1167C3.25 5.28424 7.16751 1.36673 12 1.36673C16.8325 1.36673 20.75 5.28424 20.75 10.1167C20.75 11.4186 20.1716 12.8595 19.4035 14.2236C18.6242 15.6079 17.5949 17.007 16.5808 18.2481C15.5643 19.4921 14.5499 20.5935 13.7906 21.3829C13.4105 21.7781 13.0934 22.0962 12.8706 22.3161C12.7592 22.426 12.6714 22.5115 12.611 22.5699L12.5414 22.6368L12.523 22.6544L12.518 22.6591L12.5166 22.6605C12.5164 22.6606 12.5159 22.6611 12 22.1167ZM12 22.1167L12.5166 22.6605L12 23.15L11.4838 22.6609L12 22.1167Z" fill="#D6163B"/>
<path id="Vector" d="M12 11.1167C12.5523 11.1167 13 10.669 13 10.1167C13 9.56445 12.5523 9.11673 12 9.11673C11.4477 9.11673 11 9.56445 11 10.1167C11 10.669 11.4477 11.1167 12 11.1167Z" fill="white"/>
<path id="Vector (Stroke)" fill-rule="evenodd" clip-rule="evenodd" d="M12 9.86673C11.8619 9.86673 11.75 9.97866 11.75 10.1167C11.75 10.2548 11.8619 10.3667 12 10.3667C12.1381 10.3667 12.25 10.2548 12.25 10.1167C12.25 9.97866 12.1381 9.86673 12 9.86673ZM10.25 10.1167C10.25 9.15023 11.0335 8.36673 12 8.36673C12.9665 8.36673 13.75 9.15023 13.75 10.1167C13.75 11.0832 12.9665 11.8667 12 11.8667C11.0335 11.8667 10.25 11.0832 10.25 10.1167Z" fill="#D6163B"/>
</g>
</svg>
