<svg width="25" height="24" viewBox="0 0 25 24" fill="none" xmlns="http://www.w3.org/2000/svg">
<g id="telegram">
<circle id="Ellipse 251" cx="12.5004" cy="12.0004" r="9.6" fill="white"/>
<path id="Vector" fill-rule="evenodd" clip-rule="evenodd" d="M7.246 11.8991C10.0446 10.6798 11.9108 9.87601 12.8445 9.48763C15.5105 8.37874 16.0645 8.18612 16.4256 8.17976C16.505 8.17836 16.6826 8.19804 16.7976 8.29137C16.8947 8.37017 16.9214 8.47663 16.9342 8.55135C16.947 8.62606 16.9629 8.79627 16.9503 8.92927C16.8058 10.4473 16.1807 14.131 15.8626 15.8312C15.7281 16.5506 15.4631 16.7918 15.2066 16.8154C14.6491 16.8667 14.2257 16.447 13.6858 16.093C12.8409 15.5392 12.3635 15.1944 11.5434 14.6539C10.5956 14.0293 11.21 13.686 11.7502 13.125C11.8915 12.9782 14.3478 10.744 14.3954 10.5413C14.4013 10.5159 14.4068 10.4215 14.3507 10.3716C14.2946 10.3217 14.2117 10.3387 14.1519 10.3523C14.0672 10.3715 12.7174 11.2637 10.1026 13.0288C9.71947 13.2918 9.37244 13.42 9.06152 13.4133C8.71875 13.4059 8.0594 13.2195 7.56924 13.0602C6.96804 12.8647 6.49021 12.7614 6.53182 12.4295C6.55349 12.2567 6.79155 12.0799 7.246 11.8991Z" fill="#701032"/>
</g>
</svg>
