<svg width="25" height="24" viewBox="0 0 25 24" fill="none" xmlns="http://www.w3.org/2000/svg">
<g id="whatsapp">
<g id="Group">
<g id="Group_2">
<g id="Group_3">
<path id="Vector" d="M2.98054 11.914C2.97995 13.5905 3.41999 15.2274 4.25673 16.6704L2.90039 21.6004L7.96825 20.2775C9.36455 21.035 10.9366 21.4349 12.5366 21.4354H12.5407C17.8095 21.4354 22.0981 17.1672 22.1004 11.9215C22.1014 9.37928 21.1079 6.98918 19.3028 5.19068C17.4981 3.39245 15.0979 2.40158 12.5403 2.40039C7.27118 2.40039 2.98259 6.66801 2.98031 11.914L2.98054 11.914ZM12.5406 21.4353H12.5407H12.5406C12.5405 21.4353 12.5404 21.4353 12.5406 21.4353Z" fill="white"/>
<path id="Vector_2" fill-rule="evenodd" clip-rule="evenodd" d="M10.0666 7.79074C9.88123 7.38052 9.68617 7.37231 9.50985 7.36509C9.36555 7.35898 9.20051 7.35938 9.03566 7.35938C8.87061 7.35938 8.60255 7.42103 8.37587 7.66753C8.149 7.91404 7.50977 8.50991 7.50977 9.7218C7.50977 10.9338 8.39654 12.1049 8.52008 12.2694C8.64384 12.4336 10.2319 15.0001 12.7467 15.9874C14.837 16.808 15.2623 16.6448 15.716 16.6036C16.1696 16.5626 17.1799 16.008 17.3861 15.4328C17.5923 14.8576 17.5923 14.3646 17.5305 14.2617C17.4686 14.159 17.3036 14.0974 17.0562 13.9743C16.8087 13.8511 15.5922 13.2551 15.3654 13.1729C15.1386 13.0908 14.9736 13.0498 14.8085 13.2964C14.6436 13.5427 14.1697 14.0974 14.0253 14.2617C13.881 14.4263 13.7366 14.4468 13.4892 14.3236C13.2417 14.2 12.4447 13.9402 11.4993 13.1011C10.7637 12.4482 10.2672 11.6419 10.1228 11.3953C9.97846 11.149 10.1074 11.0156 10.2314 10.8927C10.3426 10.7824 10.4789 10.6051 10.6027 10.4614C10.7262 10.3175 10.7673 10.2149 10.8498 10.0506C10.9324 9.88616 10.8911 9.7423 10.8293 9.61908C10.7673 9.49588 10.2865 8.27776 10.0665 7.79067" fill="#701032"/>
</g>
</g>
</g>
</g>
</svg>
