<svg width="121" height="51" viewBox="0 0 121 51" fill="none" xmlns="http://www.w3.org/2000/svg">
<g id="Group 1">
<g id="Group 33543">
<path id="path18" fill-rule="evenodd" clip-rule="evenodd" d="M0.000244141 7.82118C0.0384895 6.49534 0.0768718 5.1695 0.115481 3.8432C1.06911 -0.203522 4.58864 -0.243595 8.47487 0.2882C14.0264 1.84761 17.2977 1.62407 18.8521 0.0573692C19.3325 0.0382462 19.8128 0.0191231 20.2932 0C20.2995 0.403397 20.3064 0.806789 20.3127 1.21064C17.0191 3.2381 13.7336 5.1349 10.3004 9.26266C8.744 10.9819 7.66781 13.0449 7.072 15.4507C6.03901 18.8263 5.94958 22.2019 7.93689 25.578C11.9051 33.5512 22.8501 32.5978 28.3839 28.0953C28.3966 21.0231 28.4094 13.9514 28.4221 6.87961C27.6472 6.2777 26.8718 5.67534 26.0969 5.07343C25.4499 5.82923 24.8029 6.58503 24.1559 7.34084C23.8805 7.05263 23.605 6.76442 23.3296 6.47622C25.1872 4.32401 27.0448 2.17133 28.9025 0.0191193C30.5233 1.12733 32.1438 2.23553 33.7646 3.34374C34.6679 2.58794 35.5708 1.83213 36.4741 1.07587C36.679 1.24889 36.8844 1.42191 37.0892 1.59492C36.012 2.58794 35.5303 3.72938 35.0135 4.86172C34.9366 13.4583 34.8601 22.0548 34.7831 30.6514C34.891 31.4851 35.1087 32.173 35.6286 32.4576C36.2305 31.9258 36.8329 31.3944 37.4348 30.8626C37.6912 31.1572 37.9475 31.4518 38.2038 31.7464C36.5702 33.4055 34.9366 35.0646 33.3034 36.7238C34.2231 38.962 35.8759 40.4673 38.0308 41.4703C37.3255 44.2895 35.1533 45.8048 31.9776 46.4281C31.1293 44.5955 28.1193 43.2778 26.8081 41.3933C28.9621 41.8441 34.2454 41.7252 32.1888 37.704C29.6396 35.1029 28.6953 32.5022 28.4799 29.9015C20.7321 39.8089 1.63023 39.3855 0.884168 22.5994C0.990344 18.6769 2.19457 15.1666 4.49685 12.0682C6.85108 9.2745 9.63894 6.54678 14.3551 4.11228C11.6142 4.94776 8.89835 4.91134 6.19431 4.48381C4.99878 4.29486 4.28737 3.97069 3.14661 4.51842C2.02402 5.05704 1.07498 6.0792 0.384564 7.82118C0.256351 7.82118 0.128093 7.82118 0.000244141 7.82118Z" fill="white"/>
<path id="path20" fill-rule="evenodd" clip-rule="evenodd" d="M24.672 20.0515C18.6406 21.4743 13.2298 21.6874 9.3444 18.9246C9.33106 17.2086 9.31754 15.4921 9.3042 13.7756L11.5679 13.7847L11.557 14.2182C10.9134 14.2045 10.2598 14.2209 9.61617 14.2072C9.12868 14.9325 10.3872 15.5231 11.8379 15.9251C12.321 15.7375 12.9721 15.3715 13.4547 15.1834C13.4683 15.3041 13.5016 15.4051 13.5148 15.5258C13.059 15.794 12.3752 16.0822 11.919 16.3503C11.9326 16.9668 11.9458 17.5838 11.9595 18.2007C13.0454 18.8327 14.2255 18.8991 15.4193 18.8846C18.962 20.3875 21.8814 20.3766 24.672 20.0515Z" fill="#D6163B"/>
<path id="path22" fill-rule="evenodd" clip-rule="evenodd" d="M15.6917 17.6785H16.0837V18.8568H15.6917V17.6785Z" fill="#D6163B"/>
<path id="path24" fill-rule="evenodd" clip-rule="evenodd" d="M13.7827 16.9664L13.8073 17.5191L12.7546 18.0833L12.0935 18.0099L13.7827 16.9664Z" fill="#D6163B"/>
<path id="path26" fill-rule="evenodd" clip-rule="evenodd" d="M11.7537 12.0783V13.803H12.677C12.8919 14.5578 13.3622 14.9872 14.088 15.0919V13.2803L12.1543 12.2695L14.994 11.7295L15.952 12.5486H16.4751L15.1684 11.3812L11.7537 12.0783Z" fill="#D6163B"/>
<path id="path28" fill-rule="evenodd" clip-rule="evenodd" d="M16.0742 16.7296H19.9944V16.2939H19.7503V15.9456H16.301V16.2939H16.0742V16.7296Z" fill="#D6163B"/>
<path id="path30" fill-rule="evenodd" clip-rule="evenodd" d="M20.2129 12.5149L21.7227 12.9265L23.6896 12.3319L22.4316 11.8056H20.899L20.2129 12.5149Z" fill="white"/>
<path id="path32" fill-rule="evenodd" clip-rule="evenodd" d="M16.4841 13.3613H19.618V13.7042H16.4841V13.3613Z" fill="#D6163B"/>
<path id="path34" fill-rule="evenodd" clip-rule="evenodd" d="M20.0525 17.8902H20.3953V18.6136C21.5313 18.6114 22.7146 18.4361 23.8493 18.0732C23.8575 18.2025 23.8647 18.3323 23.8725 18.462C22.6199 18.7753 21.3228 18.9651 20.0525 18.9651V17.8902Z" fill="#D6163B"/>
<path id="path36" fill-rule="evenodd" clip-rule="evenodd" d="M16.0569 12.8796C16.0628 13.5179 16.0687 14.1572 16.0742 14.796C17.3112 14.7782 18.5483 14.7609 19.7853 14.7436C19.7853 14.0178 19.7853 13.2916 19.7853 12.5659C20.099 12.2581 20.4123 11.9503 20.726 11.6425C21.3297 11.6366 21.9339 11.6312 22.5381 11.6252C23.1996 11.8515 23.8616 12.0783 24.5241 12.3046C24.5182 12.804 24.5123 13.3035 24.5064 13.803C25.2963 13.8203 26.0863 13.8375 26.8758 13.8548C26.8817 15.6032 26.8876 17.3511 26.8935 19.099C26.568 19.4241 26.2429 19.7492 25.9178 20.0747C25.9005 19.9354 25.8827 19.7961 25.8654 19.6563C26.0803 19.4592 26.2952 19.2616 26.5101 19.064L26.4815 15.1447C25.7243 15.7944 24.7987 16.1559 23.7547 16.3135L23.7401 17.9489C23.2984 17.6935 22.8573 17.4381 22.4161 17.1827C22.381 16.4915 22.4211 15.8004 22.386 15.1092C22.9784 14.7145 23.2406 14.1977 23.3217 13.803C23.6467 13.7506 23.9723 13.8203 24.2974 13.7679C24.2919 13.3381 24.286 12.9083 24.2801 12.4789C23.4496 12.7344 22.6191 12.9898 21.7887 13.2452C21.7773 13.9191 21.7654 14.5924 21.7541 15.2663C21.8237 15.3241 21.8934 15.3824 21.963 15.4402C21.969 16.0212 21.9744 16.6017 21.9803 17.1827C21.4285 17.3161 20.8771 17.4499 20.3253 17.5833C20.3367 17.235 20.3485 16.8863 20.3604 16.538C20.1569 16.2475 19.9538 15.957 19.7503 15.667C18.5542 15.6729 17.3577 15.6783 16.1616 15.6843C16.0163 15.9688 15.8711 16.2534 15.7259 16.538C15.7026 16.8863 15.6794 17.235 15.6562 17.5833C15.1335 17.4499 14.6108 17.3161 14.0881 17.1827C14.1 16.5903 14.1118 15.998 14.1232 15.4056C14.1874 15.4056 14.2511 15.4056 14.3149 15.4056C14.3263 14.7026 14.3381 14.0001 14.3495 13.2976C14.9191 13.1582 15.4882 13.0189 16.0569 12.8796ZM26.4778 14.633L26.4751 14.2382C25.5112 14.2441 24.5473 14.2496 23.583 14.256C23.4382 14.6334 23.13 14.9644 22.6601 15.249L23.7355 15.9829C24.9648 15.6706 25.8973 15.2285 26.4778 14.633Z" fill="#D6163B"/>
<path id="path38" fill-rule="evenodd" clip-rule="evenodd" d="M12.3324 26.8232C13.0482 27.0072 13.7644 27.1916 14.4801 27.3755C14.7196 25.063 14.4018 23.6639 13.2767 23.586C14.5739 22.42 16.0987 21.7666 17.8033 21.5208C15.3311 21.6064 13.0791 21.2257 11.0471 20.3789C11.0594 22.4104 11.0717 24.442 11.084 26.4736C11.6577 25.3909 12.3179 24.5044 13.0555 23.7923L12.6812 24.5586C14.3594 25.8352 14.0321 26.5287 12.3324 26.8232Z" fill="#D6163B"/>
<path id="path40" fill-rule="evenodd" clip-rule="evenodd" d="M16.5837 27.2999C17.5303 27.2753 18.4769 27.2503 19.4239 27.2252C19.2509 23.153 16.7504 23.1648 16.5837 27.2999Z" fill="#D6163B"/>
<path id="path42" fill-rule="evenodd" clip-rule="evenodd" d="M22.3761 26.4403C22.7249 26.428 23.0737 26.4157 23.4224 26.403C23.2981 22.7228 21.4815 23.3643 22.3761 26.4403Z" fill="#D6163B"/>
<path id="path44" fill-rule="evenodd" clip-rule="evenodd" d="M20.3955 21.3956C22.5322 21.6041 23.9901 22.2543 25.0669 23.1521C25.0419 22.2179 25.0168 21.2836 24.9918 20.3493C23.7575 21.1069 22.0628 21.233 20.3955 21.3956Z" fill="#D6163B"/>
<path id="path46" d="M48.8126 33.7028L49.1937 34.1076L46.74 36.3231C46.1527 35.8942 45.7315 35.4539 45.4775 35.0009C45.2234 34.5483 45.0964 33.9728 45.0964 33.2739L41.4039 36.2279C40.8644 35.8469 40.4473 35.3742 40.1536 34.8106C39.86 34.2465 39.7129 33.5835 39.7129 32.8214C39.7129 30.63 39.7129 29.1252 39.7129 28.3071C39.7129 27.4893 39.7129 26.5405 39.7129 25.4605L39.3081 25.0079L38.7121 25.4605L38.3311 25.0079L40.9276 22.7924L43.048 24.5554L42.238 25.3175V32.7303C42.238 33.0158 42.3095 33.258 42.4484 33.4488C42.5872 33.6391 42.7898 33.8299 43.0521 34.0206L45.0964 32.4162V25.4605L44.4294 24.5554L46.4067 22.7924L48.4078 24.5554L47.6456 25.3175V33.2739C47.6456 33.401 47.713 33.5398 47.8478 33.691C47.9826 33.8417 48.1455 33.9728 48.3363 34.0839L48.8126 33.7028ZM65.9638 33.7028L66.4168 34.1076C66.0672 34.2984 65.7894 34.4732 65.5827 34.6317C64.9316 35.1243 64.3921 35.7116 63.9632 36.3946C63.3754 36.0294 62.9506 35.5409 62.6888 34.9294C62.4266 34.318 62.2954 33.6154 62.2954 32.8214C62.2954 31.0744 62.2954 29.8041 62.2954 29.01C62.2954 28.216 62.2954 27.263 62.2954 26.1517L61.2236 25.0794L59.4607 26.5323V33.4406L60.1519 34.3935C59.8659 34.5365 59.6356 34.6717 59.4607 34.7983C58.9207 35.1958 58.5082 35.7039 58.2218 36.3231C57.5708 36.1009 57.023 35.7198 56.5787 35.1798C56.4357 35.005 56.2686 34.7432 56.0778 34.3935L56.9119 33.5121V26.3183C56.9119 26.0797 56.8204 25.8457 56.6378 25.6153C56.4553 25.3849 56.229 25.1828 55.959 25.0079L53.9816 26.6315V33.4406L54.7201 34.3935C54.4501 34.5524 54.2361 34.6954 54.0772 34.8224C53.5691 35.2354 53.1165 35.7358 52.7191 36.3231C52.1317 36.0372 51.6159 35.6324 51.171 35.1084C51.0281 34.9335 50.8532 34.6954 50.6465 34.3935L51.4092 33.5121V26.3183C51.4092 25.8575 51.2184 25.4446 50.8373 25.0794L50.4325 25.4605L50.0751 25.0079L52.2906 22.7924C52.9417 23.1895 53.3865 23.6024 53.6247 24.0313C53.8628 24.4602 53.9816 25.0712 53.9816 25.8653L57.7219 22.7924C58.3252 23.1262 58.7464 23.5787 58.9845 24.1501C59.0796 24.3887 59.2144 24.9524 59.3892 25.8416C60.1359 25.2542 60.7551 24.7457 61.2473 24.3172C61.8351 23.8091 62.3432 23.3247 62.7721 22.8639C63.344 23.0069 63.8043 23.3566 64.1535 23.912C64.2651 24.0869 64.3839 24.3487 64.5109 24.6983L65.5827 23.6739L65.9638 24.1028C65.6464 24.595 65.4083 24.9601 65.2494 25.1987C65.0432 25.5161 64.9002 25.7542 64.8205 25.9131V33.2739C64.9002 33.4328 64.9954 33.5877 65.1065 33.7384C65.2176 33.8895 65.3528 34.0042 65.5117 34.0839L65.9638 33.7028ZM76.779 33.4884L77.1838 33.941L74.6828 36.2279C73.5869 35.5764 73.0392 34.5447 73.0392 33.131L69.5848 36.2279H69.3704C68.7671 35.6242 68.3223 35.0687 68.0363 34.5602C67.6552 33.8772 67.4649 33.1706 67.4649 32.4403C67.4649 31.4873 67.7108 30.5745 68.2034 29.7007C68.6005 29.0178 69.2115 28.2715 70.0374 27.4616L68.7748 23.8647L69.1801 23.8883C69.7515 23.8883 70.2045 23.8328 70.5378 23.7217C71.014 23.5628 71.4506 23.2532 71.8477 22.7924L75.5443 24.0869L76.3265 23.5073L76.4694 23.6739C76.2313 24.0709 76.0364 24.4402 75.8857 24.7817C75.7346 25.1231 75.6194 25.4842 75.5402 25.8653V33.2025C75.6039 33.3932 75.6872 33.5599 75.7901 33.7028C75.8935 33.8458 76.0246 33.9487 76.1835 34.0125L76.779 33.4884ZM70.4622 27.386L73.0392 28.8033V25.7701L69.3904 24.3409L70.4622 27.386ZM71.1055 34.0798L73.0392 32.3488V29.3675L70.4426 27.9378C70.22 28.3508 70.0019 28.7678 69.7874 29.1885C69.573 29.6092 69.466 30.0422 69.466 30.487C69.466 31.1181 69.6244 31.7614 69.9422 32.4125C70.2122 32.9684 70.5974 33.5239 71.1055 34.0798ZM86.9983 23.5073L87.022 23.6261C86.9587 23.7536 86.9031 24.3409 86.8553 25.389C86.8075 26.4371 86.7839 27.3819 86.7839 28.2237C86.7839 29.9707 86.7839 31.17 86.7839 31.8211C86.7839 32.4722 86.7839 33.2343 86.7839 34.1076C86.0057 34.3621 85.3032 34.6594 84.6758 35.0009C84.0484 35.3424 83.441 35.7831 82.8532 36.3231C82.2022 35.7672 81.46 35.2909 80.6263 34.8939C79.7922 34.4969 78.9385 34.2028 78.0653 34.0125C78.3671 33.7265 78.5816 33.2621 78.7086 32.6188C78.8356 31.9759 78.8989 31.3048 78.8989 30.6059C78.8989 30.0659 78.9231 29.4467 78.9704 28.7478C79.0182 28.0494 79.0419 27.549 79.0419 27.2471C79.0419 26.7071 79.026 26.2864 78.9941 25.9846C78.9149 25.5557 78.8593 25.2301 78.8274 25.0079C79.7485 24.8012 80.5585 24.4201 81.2574 23.8647C80.8285 23.1339 80.1219 22.5461 79.1371 22.1017C78.8197 21.9588 78.359 21.8076 77.7557 21.6492C77.8035 21.4111 77.8472 21.1411 77.8868 20.8392C77.9264 20.5373 77.946 20.1644 77.946 19.7196V19.3622C77.946 19.267 77.946 19.1719 77.946 19.0763C77.9146 18.9338 77.8986 18.8304 77.8986 18.7667C78.2797 18.9893 79.1371 19.41 80.4715 20.0292C81.4559 20.49 82.2021 20.9425 82.7107 21.3869C83.5043 22.1017 84.2587 22.8243 84.9736 23.5551C85.2117 23.8091 85.5136 24.1347 85.8787 24.5312C86.0376 24.2776 86.2043 24.0632 86.3791 23.8883C86.5539 23.7135 86.7602 23.5865 86.9983 23.5073ZM80.9956 32.8214C81.5989 32.8214 82.25 33.004 82.9488 33.3691C83.4092 33.6391 83.8699 33.9091 84.3302 34.1791C84.4413 33.6232 84.521 32.9962 84.5688 32.2973C84.6162 31.5984 84.6398 30.9314 84.6398 30.2963C84.6398 29.3593 84.6002 28.3986 84.521 27.4137C84.5051 27.0964 84.465 26.6994 84.4017 26.2227L82.1862 24.6983L81.2811 25.2224C81.297 25.5083 81.313 25.929 81.3289 26.4849C81.3448 27.0404 81.3526 27.4852 81.3526 27.819C81.3526 28.629 81.3248 29.4667 81.2692 30.3318C81.2137 31.1978 81.1226 32.0273 80.9956 32.8214ZM92.2866 22.6973C92.6522 23.2532 92.9696 23.698 93.2396 24.0313C94.0496 25.0635 94.8755 25.9131 95.7169 26.5801C95.1455 26.9771 94.3751 27.5727 93.4062 28.3667C92.6441 29.0019 91.8819 29.6374 91.1197 30.2726C91.1197 30.4634 91.1197 30.8363 91.1197 31.3922C91.1197 31.9481 91.1197 32.5113 91.1197 33.0836C91.58 33.2899 92.0563 33.5439 92.5489 33.8458C92.7078 33.941 92.8981 34.068 93.1208 34.2269L94.931 32.8929L95.3358 33.3454C94.6369 33.8376 93.9781 34.3143 93.3589 34.7746C92.533 35.4257 91.9133 35.9101 91.5008 36.2279C91.0086 35.7991 90.4286 35.4576 89.7615 35.2035C89.3172 35.0287 88.6579 34.8543 87.7846 34.6795C88.0701 34.4095 88.285 33.7584 88.4275 32.7262C88.5705 31.6936 88.6419 30.5663 88.6419 29.3438C88.6419 28.6444 88.6265 27.9141 88.5946 27.1519C88.5627 26.3893 88.5309 25.6909 88.4994 25.0557C89.1346 24.722 89.7615 24.3646 90.3812 23.9835C91.0004 23.6024 91.6356 23.1735 92.2866 22.6973ZM91.0241 29.5104C91.5959 28.9067 92.1041 28.4304 92.5489 28.0808C92.7711 27.9064 93.0807 27.676 93.4777 27.3901C93.0174 27.0882 92.4697 26.5642 91.8341 25.8179C91.6278 25.5798 91.3578 25.2383 91.0241 24.7935C91.056 24.9997 91.0719 25.1668 91.0719 25.2939C91.1511 26.1517 91.1907 26.9138 91.1907 27.5809V27.8427C91.1907 28.5575 91.1352 29.1129 91.0241 29.5104ZM107.223 26.1116V33.4884C107.318 33.6473 107.385 33.7502 107.417 33.798C107.56 34.0042 107.731 34.1713 107.925 34.2984L108.513 33.8936L108.942 34.2984C108.719 34.3976 108.537 34.485 108.394 34.5643C107.537 35.0687 106.858 35.7116 106.365 36.4897C105.686 36.2835 105.23 35.8387 104.999 35.1557C104.829 34.6795 104.746 33.9806 104.746 33.0595C104.746 31.3284 104.746 30.1651 104.746 29.5701C104.746 28.9741 104.746 28.2952 104.746 27.533V24.7457C104.491 24.7143 104.241 24.6824 103.995 24.6505C103.749 24.6187 103.57 24.6032 103.459 24.6032C103.269 24.6032 103.126 24.6187 103.03 24.6505C102.824 25.0635 102.617 26.0483 102.411 27.6045C102.157 29.4786 101.998 30.5585 101.934 30.8445C101.712 31.7651 101.442 32.7736 101.125 33.8695C101.061 34.1076 100.966 34.4254 100.839 34.8224C100.585 35.3305 100.299 35.7358 99.9812 36.0372C99.6634 36.339 99.322 36.4897 98.9568 36.4897C98.3371 36.4897 97.8172 36.2953 97.3965 35.906C96.9758 35.5172 96.7094 35.0132 96.5983 34.3935C97.1702 34.1554 97.6546 33.925 98.0517 33.7028C98.2106 33.6072 98.4168 33.4807 98.6709 33.3217C98.7187 33.8299 98.7583 34.1554 98.7902 34.2984C98.9013 34.7906 99.0602 35.0369 99.2664 35.0369C99.3142 35.0369 99.3775 35.0132 99.4567 34.9654C99.8064 34.7432 100.06 34.4095 100.219 33.9651C100.41 33.2976 100.576 32.7262 100.719 32.2495C100.767 32.1065 100.863 31.6699 101.005 30.9396C101.275 29.5578 101.506 28.5019 101.696 27.7712C101.839 27.1834 101.982 26.3934 102.125 25.4009C102.268 24.4083 102.411 23.7376 102.554 23.388C102.856 23.388 103.475 23.3802 104.412 23.3643C105.349 23.3484 105.976 23.3402 106.294 23.3402C106.556 23.4676 106.778 23.7691 106.957 24.2458C107.135 24.7261 107.223 25.2342 107.223 25.7742C107.223 25.9172 107.223 26.0283 107.223 26.1116ZM113.393 25.4605V27.8427L116.418 26.4371C117.53 26.9138 118.482 27.533 119.276 28.2952C120.198 29.1844 120.658 30.0582 120.658 30.9155C120.658 31.7573 120.491 32.4403 120.158 32.9643C119.904 33.3614 119.356 33.8854 118.514 34.5365C118.006 34.9335 117.418 35.275 116.751 35.5609C115.846 35.942 115.251 36.212 114.965 36.3709C114.107 35.7039 113.353 35.2035 112.702 34.8702C111.86 34.4413 110.947 34.1317 109.962 33.941C110.359 33.4807 110.59 33.1788 110.653 33.0358C110.812 32.718 110.891 32.2814 110.891 31.7255C110.891 31.3125 110.891 30.6892 110.891 29.8555C110.891 29.0219 110.891 28.2556 110.891 27.5567C110.891 27.3345 110.891 27.1201 110.891 26.9138C110.891 26.7071 110.891 26.5009 110.891 26.2942C110.891 26.1517 110.891 26.0005 110.891 25.8416C110.859 25.6508 110.836 25.5083 110.82 25.4127L110.478 25.0079L109.875 25.4605L109.486 25.0079L112.082 22.7924L114.203 24.5554L113.393 25.4605ZM113.393 32.4244L116.18 33.7743C116.561 33.4725 116.847 33.2184 117.037 33.0121C117.609 32.3925 117.895 31.781 117.895 31.1777C117.895 30.6218 117.661 29.9748 117.192 29.2363C116.724 28.4978 116.227 27.9934 115.703 27.7234L113.393 28.7956V32.4244Z" fill="white"/>
<path id="path48" d="M42.8505 39.3895C43.5221 39.3641 44.0671 39.5603 44.4869 39.976C44.9058 40.393 45.1156 40.9134 45.1156 41.539C45.1156 42.0736 44.9599 42.5434 44.6471 42.9496C44.2324 43.4882 43.6468 43.7577 42.891 43.7577C42.1339 43.7577 41.5474 43.5009 41.1327 42.9864C40.8062 42.5803 40.6418 42.0991 40.6418 41.5422C40.6418 40.9166 40.8549 40.3949 41.2802 39.9783C41.7063 39.5603 42.229 39.3641 42.8505 39.3895ZM42.8888 39.5881C42.5027 39.5881 42.2099 39.7852 42.0087 40.1786C41.8452 40.5009 41.7637 40.9654 41.7637 41.57C41.7637 42.2889 41.8898 42.8203 42.1421 43.164C42.3183 43.4044 42.5655 43.5242 42.8824 43.5242C43.0955 43.5242 43.274 43.4722 43.4169 43.3693C43.5981 43.2369 43.7402 43.0247 43.8422 42.7333C43.9442 42.4428 43.9947 42.0631 43.9947 41.5955C43.9947 41.0377 43.9428 40.6207 43.839 40.3452C43.7352 40.0684 43.6036 39.8731 43.4424 39.7588C43.2821 39.645 43.0977 39.5881 42.8888 39.5881ZM47.5324 41.1912L48.6948 42.9159C48.8878 43.2009 49.0244 43.3748 49.1064 43.4363C49.1879 43.4968 49.2858 43.5337 49.3969 43.5465V43.6612H47.3425V43.5465C47.5073 43.5337 47.6121 43.5087 47.6599 43.4713C47.7077 43.4345 47.7318 43.3885 47.7318 43.3347C47.7318 43.2974 47.7245 43.2646 47.7095 43.2359C47.6813 43.1731 47.608 43.0579 47.4923 42.8872L46.8772 41.977L46.2348 42.7629C46.0417 43.0015 45.9452 43.1626 45.9452 43.2478C45.9452 43.3079 45.9707 43.3643 46.0194 43.4162C46.069 43.4672 46.1433 43.5055 46.2398 43.5273C46.2835 43.5401 46.3723 43.5465 46.5071 43.5465V43.6612H44.8889V43.5465C45.0733 43.5191 45.2185 43.4691 45.3237 43.3971C45.4626 43.3015 45.6565 43.1035 45.9047 42.8002L46.7406 41.7822L45.6684 40.2059C45.4922 39.9473 45.3925 39.803 45.367 39.7747C45.311 39.7069 45.2568 39.6582 45.2026 39.6281C45.1484 39.5994 45.0747 39.5771 44.9791 39.5635V39.4478H47.0703V39.5635H46.9642C46.8444 39.5635 46.7606 39.5826 46.7128 39.6208C46.665 39.6586 46.6409 39.7069 46.6409 39.7652C46.6409 39.8107 46.6482 39.8499 46.6632 39.8826L46.8772 40.2059L47.399 41.0018L47.8434 40.4572C48.0715 40.1786 48.1848 39.9824 48.1848 39.8713C48.1848 39.8148 48.1689 39.7629 48.137 39.7151C48.1052 39.6673 48.0587 39.6304 47.9991 39.604C47.939 39.5762 47.8456 39.5635 47.7195 39.5635V39.4478H49.2698V39.5635C49.1478 39.5658 49.049 39.5803 48.9748 39.6081C48.8997 39.6368 48.82 39.6887 48.7353 39.7652C48.6811 39.8148 48.5463 39.9696 48.331 40.2282L47.5324 41.1912ZM51.1584 41.7535V42.9218C51.1584 43.1499 51.1721 43.2933 51.2008 43.3516C51.2285 43.4108 51.2782 43.4586 51.3492 43.4936C51.4216 43.5287 51.5518 43.5465 51.7426 43.5465V43.6612H49.6017V43.5465C49.7966 43.5465 49.9282 43.5287 49.9983 43.4914C50.0671 43.4554 50.1158 43.4085 50.1445 43.3502C50.1722 43.2924 50.1859 43.1499 50.1859 42.9218V40.1882C50.1859 39.96 50.1722 39.8171 50.1445 39.7574C50.1158 39.6982 50.0671 39.6513 49.996 39.6167C49.9259 39.5803 49.7948 39.5635 49.6017 39.5635V39.4478H51.4384C52.0426 39.4478 52.4765 39.5562 52.7397 39.7711C53.0024 39.9865 53.134 40.256 53.134 40.5793C53.134 40.8529 53.0493 41.0865 52.8795 41.2818C52.7096 41.4753 52.4751 41.6078 52.1774 41.6793C51.977 41.7289 51.6365 41.7535 51.1584 41.7535ZM51.1584 39.6905V41.5117C51.2272 41.5158 51.2782 41.5181 51.3141 41.5181C51.5668 41.5181 51.7608 41.4425 51.8978 41.2923C52.0344 41.1425 52.1032 40.9094 52.1032 40.5943C52.1032 40.2815 52.0344 40.0534 51.8978 39.9081C51.7608 39.7629 51.5568 39.6905 51.2854 39.6905H51.1584ZM55.1596 42.4619H53.6717L53.4946 42.8722C53.4363 43.0087 53.4076 43.1217 53.4076 43.2104C53.4076 43.3293 53.4554 43.4162 53.5506 43.4713C53.6057 43.5055 53.7436 43.5296 53.9635 43.5465V43.6612H52.5626V43.5465C52.7128 43.5232 52.838 43.4604 52.9345 43.358C53.0324 43.256 53.1531 43.0438 53.2951 42.7224L54.8022 39.3609H54.8614L56.3803 42.8157C56.5255 43.1435 56.6444 43.3493 56.7377 43.4345C56.8087 43.4987 56.9084 43.536 57.0364 43.5465V43.6612H54.9984V43.5465H55.0822C55.2457 43.5465 55.3613 43.5232 55.4269 43.4777C55.4724 43.4449 55.4956 43.3971 55.4956 43.3347C55.4956 43.2974 55.4893 43.2592 55.4765 43.22C55.4724 43.2009 55.4414 43.1235 55.3832 42.9864L55.1596 42.4619ZM55.0535 42.2315L54.427 40.781L53.78 42.2315H55.0535ZM58.8476 41.6356V42.94C58.8476 43.1554 58.8594 43.2897 58.8831 43.3439C58.9072 43.398 58.9541 43.4449 59.0228 43.485C59.093 43.5264 59.1859 43.5465 59.3038 43.5465H59.444V43.6612H57.2413V43.5465H57.3815C57.5031 43.5465 57.6019 43.5241 57.6761 43.4809C57.7302 43.4522 57.7712 43.4021 57.7999 43.3316C57.8236 43.2824 57.835 43.1522 57.835 42.94V40.169C57.835 39.9537 57.8236 39.8189 57.7999 39.7652C57.7776 39.711 57.7312 39.6641 57.662 39.624C57.5932 39.5835 57.499 39.5635 57.3815 39.5635H57.2413V39.4478H59.444V39.5635H59.3038C59.1818 39.5635 59.0834 39.5849 59.0092 39.6281C58.955 39.6582 58.9127 39.7069 58.8817 39.7779C58.8585 39.8276 58.8476 39.9582 58.8476 40.169V41.3619H60.3355V40.169C60.3355 39.9537 60.3241 39.8189 60.3018 39.7652C60.2786 39.711 60.2317 39.6641 60.1616 39.624C60.0905 39.5835 59.9972 39.5635 59.8784 39.5635H59.7418V39.4478H61.9422V39.5635H61.8057C61.6814 39.5635 61.583 39.5849 61.5097 39.6281C61.4564 39.6582 61.4141 39.7069 61.3822 39.7779C61.3599 39.8276 61.3485 39.9582 61.3485 40.169V42.94C61.3485 43.1554 61.3599 43.2897 61.3822 43.3439C61.4054 43.398 61.4523 43.4449 61.5225 43.485C61.5935 43.5264 61.6868 43.5465 61.8057 43.5465H61.9422V43.6612H59.7418V43.5465H59.8784C60.0027 43.5465 60.1015 43.5241 60.1743 43.4809C60.2276 43.4522 60.2699 43.4021 60.3018 43.3316C60.3241 43.2824 60.3355 43.1522 60.3355 42.94V41.6356H58.8476ZM63.7971 41.6356V42.94C63.7971 43.1554 63.8085 43.2897 63.8322 43.3439C63.8563 43.398 63.9032 43.4449 63.972 43.485C64.0421 43.5264 64.1354 43.5465 64.2529 43.5465H64.3931V43.6612H62.1904V43.5465H62.3306C62.4526 43.5465 62.551 43.5241 62.6252 43.4809C62.6794 43.4522 62.7208 43.4021 62.7495 43.3316C62.7727 43.2824 62.7841 43.1522 62.7841 42.94V40.169C62.7841 39.9537 62.7727 39.8189 62.7495 39.7652C62.7272 39.711 62.6803 39.6641 62.6115 39.624C62.5428 39.5835 62.4481 39.5635 62.3306 39.5635H62.1904V39.4478H64.3931V39.5635H64.2529C64.1309 39.5635 64.0325 39.5849 63.9583 39.6281C63.9041 39.6582 63.8618 39.7069 63.8308 39.7779C63.8076 39.8276 63.7971 39.9582 63.7971 40.169V41.3619H65.2851V40.169C65.2851 39.9537 65.2732 39.8189 65.2509 39.7652C65.2277 39.711 65.1813 39.6641 65.1111 39.624C65.0401 39.5835 64.9468 39.5635 64.8279 39.5635H64.6909V39.4478H66.8914V39.5635H66.7548C66.6305 39.5635 66.5321 39.5849 66.4588 39.6281C66.4056 39.6582 66.3632 39.7069 66.3314 39.7779C66.309 39.8276 66.2977 39.9582 66.2977 40.169V42.94C66.2977 43.1554 66.309 43.2897 66.3314 43.3439C66.355 43.398 66.4015 43.4449 66.4716 43.485C66.5426 43.5264 66.636 43.5465 66.7548 43.5465H66.8914V43.6612H64.6909V43.5465H64.8279C64.9518 43.5465 65.0506 43.5241 65.1239 43.4809C65.1767 43.4522 65.2191 43.4021 65.2509 43.3316C65.2732 43.2824 65.2851 43.1522 65.2851 42.94V41.6356H63.7971ZM69.4634 39.3895C70.1345 39.3641 70.6795 39.5603 71.0993 39.976C71.5182 40.393 71.7285 40.9134 71.7285 41.539C71.7285 42.0736 71.5723 42.5434 71.2595 42.9496C70.8448 43.4882 70.2597 43.7577 69.5034 43.7577C68.7463 43.7577 68.1599 43.5009 67.7451 42.9864C67.4186 42.5803 67.2543 42.0991 67.2543 41.5422C67.2543 40.9166 67.4673 40.3949 67.8926 39.9783C68.3188 39.5603 68.8419 39.3641 69.4634 39.3895ZM69.5012 39.5881C69.1155 39.5881 68.8228 39.7852 68.6211 40.1786C68.4576 40.5009 68.3761 40.9654 68.3761 41.57C68.3761 42.2889 68.5022 42.8203 68.7545 43.164C68.9307 43.4044 69.1779 43.5242 69.4948 43.5242C69.7083 43.5242 69.8864 43.4722 70.0293 43.3693C70.2105 43.2369 70.353 43.0247 70.4546 42.7333C70.5566 42.4428 70.6076 42.0631 70.6076 41.5955C70.6076 41.0377 70.5552 40.6207 70.4514 40.3452C70.3476 40.0684 70.216 39.8731 70.0548 39.7588C69.8946 39.645 69.7102 39.5881 69.5012 39.5881ZM73.689 39.6905V41.4056H73.7728C74.0401 41.4056 74.2331 41.3219 74.3542 41.1543C74.474 40.9867 74.5505 40.7386 74.5842 40.4117H74.7016V42.6176H74.5842C74.5587 42.3768 74.5068 42.1806 74.4271 42.0271C74.3465 41.8732 74.2545 41.7703 74.1484 41.7171C74.0433 41.6656 73.8894 41.6387 73.689 41.6387V42.8257C73.689 43.0579 73.6986 43.1986 73.7186 43.251C73.7378 43.3029 73.7751 43.3452 73.8293 43.378C73.8821 43.4117 73.9691 43.4276 74.0897 43.4276H74.3415C74.7349 43.4276 75.0499 43.3366 75.2871 43.154C75.5248 42.9728 75.6946 42.695 75.7985 42.3217H75.9127L75.7242 43.6612H72.0827V43.5465H72.2225C72.3445 43.5465 72.4433 43.5241 72.5171 43.4809C72.5713 43.4522 72.6127 43.4021 72.6414 43.3316C72.6646 43.2824 72.6765 43.1522 72.6765 42.94V40.169C72.6765 39.9783 72.671 39.8612 72.6605 39.818C72.6405 39.7461 72.6013 39.6896 72.5458 39.6504C72.4666 39.5922 72.3596 39.5635 72.2225 39.5635H72.0827V39.4478H75.6086V40.694H75.4907C75.4301 40.3898 75.3463 40.1713 75.2375 40.0384C75.1292 39.9059 74.9753 39.8084 74.7763 39.747C74.6602 39.7087 74.443 39.6905 74.1239 39.6905H73.689ZM80.4366 42.4619H78.9492L78.772 42.8722C78.7133 43.0087 78.6851 43.1217 78.6851 43.2104C78.6851 43.3293 78.7329 43.4162 78.828 43.4713C78.8831 43.5055 79.0211 43.5296 79.2405 43.5465V43.6612H77.8396V43.5465C77.9903 43.5232 78.1155 43.4604 78.212 43.358C78.3094 43.256 78.4306 43.0438 78.5726 42.7224L80.0792 39.3609H80.1389L81.6573 42.8157C81.8025 43.1435 81.9218 43.3493 82.0147 43.4345C82.0857 43.4987 82.1854 43.536 82.3138 43.5465V43.6612H80.2754V43.5465H80.3592C80.5227 43.5465 80.6383 43.5232 80.7039 43.4777C80.7494 43.4449 80.7731 43.3971 80.7731 43.3347C80.7731 43.2974 80.7667 43.2592 80.754 43.22C80.7494 43.2009 80.7189 43.1235 80.6606 42.9864L80.4366 42.4619ZM80.331 42.2315L79.704 40.781L79.0571 42.2315H80.331ZM82.5123 39.4478H86.2281V40.5911H86.1133C86.0637 40.3102 86 40.1108 85.9216 39.9951C85.8442 39.8795 85.7495 39.8043 85.6371 39.7711C85.526 39.7383 85.3042 39.7215 84.9723 39.7215H84.1155V42.9965C84.1155 43.2328 84.1505 43.3835 84.2197 43.4481C84.2885 43.5137 84.4155 43.5465 84.6004 43.5465H84.7083V43.6612H82.5123V43.5465H82.6298C82.8119 43.5465 82.9371 43.5114 83.0032 43.4417C83.0701 43.3725 83.1029 43.2241 83.1029 42.9965V40.0884C83.1029 39.8977 83.0751 39.7629 83.02 39.6832C82.9649 39.6026 82.8406 39.5635 82.6457 39.5635H82.5123V39.4478ZM88.1667 39.6905V41.4056H88.2505C88.5173 41.4056 88.7104 41.3219 88.8315 41.1543C88.9512 40.9867 89.0277 40.7386 89.0619 40.4117H89.1793V42.6176H89.0619C89.0364 42.3768 88.984 42.1806 88.9048 42.0271C88.8242 41.8732 88.7318 41.7703 88.6257 41.7171C88.5205 41.6656 88.3671 41.6387 88.1667 41.6387V42.8257C88.1667 43.0579 88.1763 43.1986 88.1963 43.251C88.2155 43.3029 88.2523 43.3452 88.3065 43.378C88.3593 43.4117 88.4463 43.4276 88.5674 43.4276H88.8187C89.2121 43.4276 89.5272 43.3366 89.7648 43.154C90.0021 42.9728 90.1719 42.695 90.2757 42.3217H90.3904L90.2015 43.6612H86.56V43.5465H86.6998C86.8218 43.5465 86.9206 43.5241 86.9948 43.4809C87.0485 43.4522 87.09 43.4021 87.1186 43.3316C87.1423 43.2824 87.1537 43.1522 87.1537 42.94V40.169C87.1537 39.9783 87.1487 39.8612 87.1378 39.818C87.1177 39.7461 87.0786 39.6896 87.0235 39.6504C86.9438 39.5922 86.8368 39.5635 86.6998 39.5635H86.56V39.4478H90.0858V40.694H89.9684C89.9078 40.3898 89.824 40.1713 89.7148 40.0384C89.6064 39.9059 89.453 39.8084 89.2535 39.747C89.1379 39.7087 88.9207 39.6905 88.6016 39.6905H88.1667ZM92.417 41.6356V42.94C92.417 43.1554 92.4284 43.2897 92.452 43.3439C92.4762 43.398 92.5226 43.4449 92.5918 43.485C92.6619 43.5264 92.7553 43.5465 92.8727 43.5465H93.013V43.6612H90.8102V43.5465H90.9505C91.072 43.5465 91.1708 43.5241 91.245 43.4809C91.2992 43.4522 91.3406 43.4021 91.3693 43.3316C91.3926 43.2824 91.4039 43.1522 91.4039 42.94V40.169C91.4039 39.9537 91.3926 39.8189 91.3693 39.7652C91.3466 39.711 91.3001 39.6641 91.2314 39.624C91.1622 39.5835 91.0679 39.5635 90.9505 39.5635H90.8102V39.4478H93.013V39.5635H92.8727C92.7507 39.5635 92.6524 39.5849 92.5782 39.6281C92.524 39.6582 92.4816 39.7069 92.4507 39.7779C92.4275 39.8276 92.417 39.9582 92.417 40.169V41.3619H93.9045V40.169C93.9045 39.9537 93.8926 39.8189 93.8708 39.7652C93.8471 39.711 93.8006 39.6641 93.731 39.624C93.6595 39.5835 93.5666 39.5635 93.4478 39.5635H93.3107V39.4478H95.5112V39.5635H95.3746C95.2503 39.5635 95.152 39.5849 95.0787 39.6281C95.0254 39.6582 94.9831 39.7069 94.9512 39.7779C94.9289 39.8276 94.9175 39.9582 94.9175 40.169V42.94C94.9175 43.1554 94.9289 43.2897 94.9512 43.3439C94.9749 43.398 95.0213 43.4449 95.0914 43.485C95.1625 43.5264 95.2558 43.5465 95.3746 43.5465H95.5112V43.6612H93.3107V43.5465H93.4478C93.5716 43.5465 93.6704 43.5241 93.7433 43.4809C93.7966 43.4522 93.8389 43.4021 93.8708 43.3316C93.8926 43.2824 93.9045 43.1522 93.9045 42.94V41.6356H92.417ZM99.6399 39.4478V40.5888H99.5284C99.4614 40.3247 99.3881 40.1362 99.3075 40.0215C99.2269 39.9059 99.1158 39.8148 98.9747 39.747C98.8964 39.7087 98.7584 39.6905 98.5622 39.6905H98.2485V42.94C98.2485 43.1554 98.2599 43.2897 98.2831 43.3439C98.3077 43.398 98.3546 43.4449 98.4233 43.485C98.4935 43.5264 98.5877 43.5465 98.7074 43.5465H98.8477V43.6612H96.6417V43.5465H96.7815C96.9035 43.5465 97.0023 43.5241 97.0765 43.4809C97.1307 43.4522 97.1731 43.4021 97.2036 43.3316C97.2273 43.2824 97.2386 43.1522 97.2386 42.94V39.6905H96.9336C96.6504 39.6905 96.4432 39.7502 96.3153 39.8713C96.135 40.0384 96.0212 40.2783 95.9738 40.5888H95.8559V39.4478H99.6399ZM104.117 39.3522V40.8119H103.996C103.905 40.4308 103.735 40.1394 103.486 39.9355C103.238 39.7333 102.956 39.6313 102.641 39.6313C102.378 39.6313 102.137 39.7069 101.917 39.8585C101.698 40.0097 101.537 40.2073 101.436 40.4522C101.305 40.765 101.24 41.1129 101.24 41.4958C101.24 41.8719 101.288 42.2156 101.383 42.5252C101.478 42.8348 101.627 43.0693 101.83 43.2273C102.033 43.3866 102.296 43.465 102.619 43.465C102.885 43.465 103.128 43.4076 103.348 43.291C103.569 43.1754 103.801 42.976 104.046 42.6919V43.0556C103.81 43.3015 103.563 43.4809 103.308 43.5911C103.051 43.7026 102.753 43.7577 102.411 43.7577C101.962 43.7577 101.562 43.6676 101.213 43.4873C100.865 43.307 100.595 43.0479 100.405 42.711C100.217 42.3727 100.121 42.013 100.121 41.6324C100.121 41.2303 100.226 40.8497 100.437 40.4891C100.647 40.129 100.93 39.8489 101.288 39.6504C101.645 39.451 102.025 39.3522 102.426 39.3522C102.722 39.3522 103.036 39.416 103.365 39.5444C103.556 39.6186 103.677 39.6568 103.729 39.6568C103.795 39.6568 103.852 39.6327 103.901 39.5835C103.949 39.5348 103.981 39.4574 103.996 39.3522H104.117ZM108.479 39.4478V40.5888H108.367C108.301 40.3247 108.227 40.1362 108.147 40.0215C108.066 39.9059 107.955 39.8148 107.814 39.747C107.735 39.7087 107.597 39.6905 107.401 39.6905H107.087V42.94C107.087 43.1554 107.099 43.2897 107.122 43.3439C107.147 43.398 107.193 43.4449 107.263 43.485C107.332 43.5264 107.426 43.5465 107.547 43.5465H107.686V43.6612H105.481V43.5465H105.621C105.743 43.5465 105.841 43.5241 105.915 43.4809C105.97 43.4522 106.012 43.4021 106.043 43.3316C106.066 43.2824 106.078 43.1522 106.078 42.94V39.6905H105.772C105.489 39.6905 105.282 39.7502 105.154 39.8713C104.974 40.0384 104.86 40.2783 104.813 40.5888H104.695V39.4478H108.479ZM111.539 41.4279C111.939 41.5199 112.22 41.6337 112.381 41.7662C112.613 41.9547 112.729 42.1988 112.729 42.4988C112.729 42.8157 112.601 43.078 112.347 43.2847C112.034 43.536 111.579 43.6612 110.983 43.6612H108.842V43.5465C109.037 43.5465 109.169 43.5287 109.239 43.4914C109.308 43.4554 109.357 43.4085 109.384 43.3502C109.413 43.2924 109.427 43.1499 109.427 42.9218V40.1882C109.427 39.96 109.413 39.8171 109.384 39.7574C109.357 39.6982 109.307 39.6513 109.237 39.6167C109.167 39.5803 109.036 39.5635 108.842 39.5635V39.4478H110.861C111.344 39.4478 111.687 39.4915 111.887 39.5771C112.088 39.6632 112.246 39.7916 112.362 39.9623C112.479 40.1331 112.536 40.3152 112.536 40.5073C112.536 40.7108 112.463 40.8911 112.316 41.05C112.169 41.2085 111.91 41.3346 111.539 41.4279ZM110.409 41.3428C110.702 41.3428 110.919 41.31 111.059 41.2444C111.199 41.1775 111.306 41.0842 111.381 40.9644C111.455 40.8447 111.492 40.6908 111.492 40.5041C111.492 40.3184 111.455 40.1658 111.382 40.0461C111.309 39.9273 111.204 39.8371 111.067 39.7747C110.93 39.7119 110.711 39.6823 110.409 39.6841V41.3428ZM110.409 41.5859V42.9368L110.406 43.093C110.406 43.2041 110.433 43.2892 110.49 43.3461C110.548 43.4021 110.631 43.4313 110.744 43.4313C110.909 43.4313 111.062 43.3948 111.202 43.3206C111.342 43.2478 111.449 43.1403 111.523 43.0006C111.598 42.8617 111.636 42.7055 111.636 42.5339C111.636 42.3367 111.59 42.1596 111.499 42.0034C111.408 41.8477 111.282 41.7385 111.123 41.6761C110.963 41.6132 110.725 41.5837 110.409 41.5859ZM115.41 39.3895C116.081 39.3641 116.626 39.5603 117.046 39.976C117.465 40.393 117.675 40.9134 117.675 41.539C117.675 42.0736 117.519 42.5434 117.206 42.9496C116.792 43.4882 116.206 43.7577 115.45 43.7577C114.693 43.7577 114.107 43.5009 113.692 42.9864C113.365 42.5803 113.201 42.0991 113.201 41.5422C113.201 40.9166 113.414 40.3949 113.839 39.9783C114.266 39.5603 114.788 39.3641 115.41 39.3895ZM115.448 39.5881C115.062 39.5881 114.769 39.7852 114.568 40.1786C114.404 40.5009 114.323 40.9654 114.323 41.57C114.323 42.2889 114.449 42.8203 114.701 43.164C114.878 43.4044 115.125 43.5242 115.442 43.5242C115.655 43.5242 115.833 43.4722 115.976 43.3693C116.157 43.2369 116.299 43.0247 116.401 42.7333C116.503 42.4428 116.554 42.0631 116.554 41.5955C116.554 41.0377 116.502 40.6207 116.398 40.3452C116.294 40.0684 116.163 39.8731 116.002 39.7588C115.841 39.645 115.657 39.5881 115.448 39.5881Z" fill="white"/>
<path id="path52" d="M42.6038 2.46864V11.5642H44.3298V3.85457H46.61V11.5642H48.336V2.46864H42.6038Z" fill="#D6163B"/>
<path id="path54" d="M49.5327 5.41675V8.71724C49.5327 11.0101 50.7675 11.7787 52.4935 11.7787C54.2442 11.7787 55.4157 11.0352 55.4157 8.71724V5.41675C55.4157 3.09881 54.2442 2.30521 52.4935 2.30521C50.7675 2.30521 49.5327 3.1243 49.5327 5.41675ZM52.4935 3.69069C53.2366 3.69069 53.6523 4.2703 53.6523 5.24054V8.93168C53.6523 9.88918 53.2366 10.3927 52.4935 10.3927C51.6745 10.3927 51.2966 9.87643 51.2966 8.93168V5.21506C51.2966 4.24526 51.6745 3.69069 52.4935 3.69069Z" fill="#D6163B"/>
<path id="path56" d="M57.7338 2.46866V5.30338C57.7338 7.81027 57.5066 8.84334 56.9019 10.1787H56.3601V13.3914H58.0233V11.5642H61.79V13.3914H63.4528V10.1787H62.8987V2.46866H57.7338ZM61.1726 3.8546V10.1787H58.6152C59.1443 9.04504 59.4343 8.01197 59.4343 5.92077V3.8546H61.1726Z" fill="#D6163B"/>
<path id="path58" d="M67.4209 5.41675V8.71724C67.4209 11.0101 68.6557 11.7787 70.3817 11.7787C72.1328 11.7787 73.3043 11.0352 73.3043 8.71724V5.41675C73.3043 3.09881 72.1328 2.30521 70.3817 2.30521C68.6557 2.30521 67.4209 3.1243 67.4209 5.41675ZM70.3817 3.69069C71.1248 3.69069 71.5409 4.2703 71.5409 5.24054V8.93168C71.5409 9.88918 71.1248 10.3927 70.3817 10.3927C69.5626 10.3927 69.1847 9.87643 69.1847 8.93168V5.21506C69.1847 4.24526 69.5626 3.69069 70.3817 3.69069Z" fill="#D6163B"/>
<path id="path60" d="M74.1482 2.46864L76.2521 6.89098L74.0603 11.5642H75.9498L77.323 8.21364L78.6461 11.5642H80.5734L78.2555 6.89098L80.4974 2.46864H78.5578L77.323 5.42947L76.1515 2.46864H74.1482Z" fill="#D6163B"/>
<path id="path62" d="M83.143 7.86078H84.6546C86.1285 7.86078 87.0737 6.626 87.0737 5.12714C87.0737 3.66562 86.154 2.46864 84.6797 2.46864H81.417V11.5642H83.143V7.86078ZM83.143 3.81678H84.0122C84.8814 3.81678 85.3098 4.29576 85.3098 5.15219C85.3098 6.02136 84.8814 6.51263 84.0122 6.51263H83.143V3.81678Z" fill="#D6163B"/>
<path id="path64" d="M87.1365 11.5642H88.9887L89.53 9.19618H91.4828L91.9108 11.5642H93.7752L91.7601 2.46864H89.4417L87.1365 11.5642ZM89.744 7.84803L90.5758 3.61554L91.2683 7.84803H89.744Z" fill="#D6163B"/>
<path id="path66" d="M96.2192 2.46864H94.4932V11.5642H96.2192V7.35676H98.4994V11.5642H100.225V2.46864H98.4994V5.97127H96.2192V2.46864Z" fill="#D6163B"/>
<path id="path68" d="M101.422 5.41675V8.71724C101.422 11.0101 102.657 11.7787 104.383 11.7787C106.134 11.7787 107.306 11.0352 107.306 8.71724V5.41675C107.306 3.09881 106.134 2.30521 104.383 2.30521C102.657 2.30521 101.422 3.1243 101.422 5.41675ZM104.383 3.69069C105.126 3.69069 105.542 4.2703 105.542 5.24054V8.93168C105.542 9.88918 105.126 10.3927 104.383 10.3927C103.564 10.3927 103.186 9.87643 103.186 8.93168V5.21506C103.186 4.24526 103.564 3.69069 104.383 3.69069Z" fill="#D6163B"/>
<path id="path70" d="M108.502 2.46864V11.5642H110.366L112.886 4.96324H112.898C112.722 5.78187 112.684 6.72708 112.684 8.11256V11.5642H114.297V2.46864H112.433L109.913 9.08281H109.9C110.064 8.32656 110.115 6.96657 110.115 5.88295V2.46864H108.502ZM109.535 -8.58307e-06C109.535 0.969785 109.9 1.88949 111.311 1.88949C112.772 1.88949 113.138 0.969785 113.138 -8.58307e-06H112.243C112.243 0.680212 111.891 1.03307 111.336 1.03307C110.782 1.03307 110.429 0.680212 110.429 -8.58307e-06H109.535Z" fill="#D6163B"/>
<path id="path72" d="M41.1672 46.4285V47.9702C41.1672 49.1376 41.0916 49.2355 40.9045 49.2355C40.833 49.2355 40.7483 49.2268 40.7083 49.2132V49.6635C40.8244 49.6944 40.9354 49.7035 41.0784 49.7035C41.5906 49.7035 41.7687 49.2268 41.7687 48.1528V46.9184H42.4193V49.6452H43.0298V46.4285H41.1672Z" fill="#D6163B"/>
<path id="path74" d="M43.5022 47.2126V49.6452H44.0367L44.6204 48.211V49.6452H45.1554V47.2126H44.625L44.0367 48.6654V47.2126H43.5022Z" fill="#D6163B"/>
<path id="path76" d="M46.1488 47.2126H45.6006V49.6452H46.9018V50.2335H47.4186V49.2132H47.2228V47.2126H46.6746V49.2132H46.1488V47.2126Z" fill="#D6163B"/>
<path id="path78" d="M47.6282 49.6452H48.185V49.0752H47.6282V49.6452Z" fill="#D6163B"/>
<path id="path80" d="M53.0413 48.5448V47.8231C53.0413 47.5559 52.7695 47.4042 52.5023 47.4042C52.2482 47.4042 51.9723 47.5513 51.9723 47.8231V48.5448C51.9723 48.817 52.2482 48.9591 52.5023 48.9591C52.7695 48.9591 53.0413 48.812 53.0413 48.5448ZM52.7117 47.8677V48.5047C52.7117 48.634 52.6138 48.7009 52.5023 48.7009C52.3998 48.7009 52.3019 48.634 52.3019 48.5047V47.8677C52.3019 47.7384 52.3998 47.6629 52.5023 47.6629C52.6138 47.6629 52.7117 47.7384 52.7117 47.8677ZM51.9723 49.1908V49.454H53.0591V49.1908H51.9723ZM49.5168 46.4285V49.6452H50.0873V48.5047C50.0873 48.1796 50.0787 47.6269 50.0118 47.3109H50.0163L50.9073 49.6452H51.5666V46.4285H50.9966V47.5691C50.9966 47.9347 51.0052 48.4068 51.0722 48.7679H51.0676L50.1766 46.4285H49.5168Z" fill="#D6163B"/>
<path id="path82" d="M54.1822 46.4863C54.1112 46.7896 53.8526 47.0391 53.3759 47.0391H53.3003V47.4712H54.0265V49.6452H54.597V46.4863H54.1822Z" fill="#D6163B"/>
<path id="path84" d="M55.5995 46.4864L55.5326 48.1573H56.0803C56.1208 48.0194 56.2273 47.9301 56.3658 47.9301C56.5838 47.9301 56.7086 48.0817 56.7086 48.3845V48.7187C56.7086 49.1421 56.6062 49.2446 56.379 49.2446C56.165 49.2446 56.058 49.1376 56.058 48.6832H55.4966V48.8257C55.4966 49.4094 55.8308 49.7213 56.4058 49.7213C57.0159 49.7213 57.2791 49.3916 57.2791 48.6741V48.3668C57.2791 47.7876 57.025 47.4398 56.5037 47.4398C56.3475 47.4398 56.2005 47.498 56.058 47.6451L56.0939 46.9631H57.1361V46.4864H55.5995Z" fill="#D6163B"/>
<path id="path86" d="M58.5983 46.4863L57.7068 48.4382V49.0083H58.7048V49.6452H59.2753V49.0083H59.5603V48.5184H59.2753V46.4863H58.5983ZM58.7048 48.5184H58.1211L58.7048 47.2126V48.5184Z" fill="#D6163B"/>
<path id="path88" d="M61.8463 47.1502C61.1957 47.1502 60.9817 47.5204 60.9817 47.9433V48.9236C60.9817 49.347 61.1957 49.7167 61.8463 49.7167C62.4833 49.7167 62.7064 49.347 62.7064 48.9236V47.9433C62.7064 47.5204 62.4833 47.1502 61.8463 47.1502ZM61.8463 47.5827C62.0243 47.5827 62.1359 47.6451 62.1359 47.8723V48.9951C62.1359 49.2223 62.0243 49.2847 61.8463 49.2847C61.6769 49.2847 61.5522 49.2132 61.5522 48.9951V47.8723C61.5522 47.6492 61.6769 47.5827 61.8463 47.5827Z" fill="#D6163B"/>
<path id="path90" d="M62.9509 47.2126V47.6451H63.5128V49.6452H64.0605V47.6451H64.6219V47.2126H62.9509Z" fill="#D6163B"/>
<path id="path92" d="M67.6825 49.1553H66.582C66.6266 48.7679 67.0009 48.5225 67.3305 48.2065C67.6024 47.9433 67.754 47.6046 67.754 47.2704C67.754 46.7541 67.3574 46.4285 66.8629 46.4285C66.4304 46.4285 65.9719 46.7359 65.9719 47.391V47.5782H66.542V47.4042C66.542 47.0345 66.6622 46.9184 66.8629 46.9184C67.0633 46.9184 67.1835 47.03 67.1835 47.3196C67.1835 47.529 67.1348 47.6451 66.8538 47.9256C66.5911 48.1883 65.9314 48.5985 65.9314 49.4809V49.6452H67.6825V49.1553Z" fill="#D6163B"/>
<path id="path94" d="M68.3026 46.4864L68.2357 48.1573H68.7839C68.824 48.0194 68.9305 47.9301 69.0689 47.9301C69.287 47.9301 69.4118 48.0817 69.4118 48.3845V48.7187C69.4118 49.1421 69.3093 49.2446 69.0821 49.2446C68.8686 49.2446 68.7611 49.1376 68.7611 48.6832H68.2002V48.8257C68.2002 49.4094 68.5344 49.7213 69.109 49.7213C69.7195 49.7213 69.9822 49.3916 69.9822 48.6741V48.3668C69.9822 47.7876 69.7282 47.4398 69.2069 47.4398C69.0507 47.4398 68.9041 47.498 68.7611 47.6451L68.7971 46.9631H69.8397V46.4864H68.3026Z" fill="#D6163B"/>
<path id="path96" d="M70.3254 49.6452H70.8823V49.0752H70.3254V49.6452Z" fill="#D6163B"/>
<path id="path98" d="M72.1027 46.4285C71.6082 46.4285 71.2117 46.7582 71.2117 47.2663V48.8658C71.2117 49.3739 71.6082 49.7213 72.1027 49.7213C72.6372 49.7213 72.9805 49.3825 72.9805 48.8658V47.2663C72.9805 46.7495 72.6372 46.4285 72.1027 46.4285ZM72.1027 46.9184C72.2634 46.9184 72.41 47.0168 72.41 47.2085V48.9013C72.41 49.093 72.2634 49.2309 72.1027 49.2309C71.9333 49.2309 71.7822 49.1107 71.7822 48.9195V47.2126C71.7822 47.0254 71.9333 46.9184 72.1027 46.9184Z" fill="#D6163B"/>
<path id="path100" d="M74.3483 46.4285C73.8493 46.4285 73.4709 46.6648 73.4709 47.1948V47.9524C73.4709 48.4159 73.7469 48.6654 74.1211 48.6654C74.2905 48.6654 74.5131 48.5671 74.6206 48.4423V48.8171C74.6206 49.1376 74.5222 49.2446 74.3306 49.2446C74.1434 49.2446 74.041 49.1553 74.041 48.9728H73.4709C73.4709 49.4358 73.8229 49.7213 74.3442 49.7213C74.8965 49.7213 75.1906 49.3334 75.1906 48.8389V47.1994C75.1906 46.6557 74.785 46.4285 74.3483 46.4285ZM74.3483 46.9052C74.5309 46.9052 74.6206 47.0122 74.6206 47.2262V47.8586C74.6206 48.0817 74.4822 48.1751 74.3306 48.1751C74.188 48.1751 74.041 48.0681 74.041 47.8677V47.2308C74.041 47.0122 74.1657 46.9052 74.3483 46.9052Z" fill="#D6163B"/>
<path id="path102" d="M75.5334 49.6452H76.0907V49.0752H75.5334V49.6452Z" fill="#D6163B"/>
<path id="path104" d="M78.1092 49.1553H77.0083C77.0534 48.7679 77.4272 48.5225 77.7573 48.2065C78.0291 47.9433 78.1803 47.6046 78.1803 47.2704C78.1803 46.7541 77.7842 46.4285 77.2892 46.4285C76.8572 46.4285 76.3982 46.7359 76.3982 47.391V47.5782H76.9687V47.4042C76.9687 47.0345 77.0889 46.9184 77.2892 46.9184C77.49 46.9184 77.6102 47.03 77.6102 47.3196C77.6102 47.529 77.5611 47.6451 77.2806 47.9256C77.0174 48.1883 76.3582 48.5985 76.3582 49.4809V49.6452H78.1092V49.1553Z" fill="#D6163B"/>
<path id="path106" d="M79.5614 46.4285C79.067 46.4285 78.6704 46.7582 78.6704 47.2663V48.8658C78.6704 49.3739 79.067 49.7213 79.5614 49.7213C80.096 49.7213 80.4393 49.3825 80.4393 48.8658V47.2663C80.4393 46.7495 80.096 46.4285 79.5614 46.4285ZM79.5614 46.9184C79.7217 46.9184 79.8688 47.0168 79.8688 47.2085V48.9013C79.8688 49.093 79.7217 49.2309 79.5614 49.2309C79.3921 49.2309 79.2409 49.1107 79.2409 48.9195V47.2126C79.2409 47.0254 79.3921 46.9184 79.5614 46.9184Z" fill="#D6163B"/>
<path id="path108" d="M82.6178 49.1553H81.5173C81.5619 48.7679 81.9362 48.5225 82.2658 48.2065C82.5377 47.9433 82.6893 47.6046 82.6893 47.2704C82.6893 46.7541 82.2927 46.4285 81.7982 46.4285C81.3657 46.4285 80.9068 46.7359 80.9068 47.391V47.5782H81.4773V47.4042C81.4773 47.0345 81.5975 46.9184 81.7982 46.9184C81.9986 46.9184 82.1188 47.03 82.1188 47.3196C82.1188 47.529 82.0701 47.6451 81.7891 47.9256C81.5264 48.1883 80.8667 48.5985 80.8667 49.4809V49.6452H82.6178V49.1553Z" fill="#D6163B"/>
<path id="path110" d="M84.0705 46.4285C83.576 46.4285 83.1794 46.7582 83.1794 47.2663V48.8658C83.1794 49.3739 83.576 49.7213 84.0705 49.7213C84.6055 49.7213 84.9483 49.3825 84.9483 48.8658V47.2663C84.9483 46.7495 84.6055 46.4285 84.0705 46.4285ZM84.0705 46.9184C84.2312 46.9184 84.3778 47.0168 84.3778 47.2085V48.9013C84.3778 49.093 84.2312 49.2309 84.0705 49.2309C83.9016 49.2309 83.7499 49.1107 83.7499 48.9195V47.2126C83.7499 47.0254 83.9016 46.9184 84.0705 46.9184Z" fill="#D6163B"/>
</g>
</g>
</svg>
